<svg width="140" height="140" viewBox="0 0 140 140" fill="none" xmlns="http://www.w3.org/2000/svg">
<path d="M119.591 20.5749C106.429 7.41392 88.9279 0.165649 70.3105 0.165649C51.6959 0.165649 34.1958 7.41392 21.0335 20.5753C7.87055 33.7371 0.621094 51.2385 0.621094 69.8551C0.621094 88.4685 7.87055 105.969 21.0335 119.132C34.1965 132.295 51.6967 139.545 70.3105 139.545C88.9271 139.545 106.428 132.295 119.591 119.132C132.752 105.97 140 88.4693 140 69.8551C140 51.2377 132.752 33.7364 119.591 20.5749ZM70.3105 135.733C33.9858 135.733 4.43308 106.18 4.43308 69.8555C4.43308 52.4202 11.2443 36.5478 22.3418 24.7519C27.6993 23.768 36.4705 23.2357 39.1546 25.7968C39.594 26.216 40.0701 26.8808 39.8514 28.3124C39.3148 31.806 36.5358 34.9544 33.593 38.2883C28.9648 43.5319 23.7188 49.4751 26.9922 57.9695C31.3238 69.2275 45.7175 70.302 51.0529 70.3016C51.2977 70.3016 51.5195 70.2992 51.7248 70.2957L54.4864 76.0372C54.8146 76.7194 55.4956 77.1172 56.2055 77.1172C56.4824 77.1172 56.7639 77.0567 57.0305 76.9286C57.9792 76.4722 58.3783 75.3336 57.9219 74.3849L53.2375 64.6451C52.8163 63.7711 52.7621 62.7816 53.0852 61.8582C53.4079 60.9352 54.0668 60.1948 54.9408 59.774C55.8136 59.3537 56.8039 59.3007 57.7297 59.6249C58.6559 59.9496 59.3982 60.6101 59.819 61.4841L63.8457 69.8515C63.8611 69.8899 63.8762 69.9291 63.8944 69.967L66.1422 74.6237L66.1541 74.6487C66.1541 74.6487 66.1541 74.6491 66.1545 74.6491L66.1553 74.6506C66.1766 74.6945 66.2039 74.7337 66.2281 74.7756C66.253 74.8187 66.2751 74.8642 66.3032 74.9045C66.3344 74.95 66.3712 74.99 66.406 75.0319C66.4329 75.0643 66.4566 75.0995 66.4851 75.13C66.5172 75.164 66.5539 75.1924 66.5883 75.2241C66.6247 75.2573 66.6587 75.2933 66.6975 75.3233C66.7121 75.3348 66.7287 75.3431 66.7438 75.3542C67.1127 75.6259 67.5739 75.7647 68.0496 75.7196L88.8698 73.7675C89.6734 73.692 90.4624 73.9368 91.0896 74.458C91.7145 74.9769 92.0989 75.7034 92.1716 76.503C92.2618 77.4925 93.0931 78.236 94.0675 78.236C94.1257 78.236 94.1838 78.2332 94.2427 78.2281C95.2911 78.1328 96.0635 77.2054 95.9678 76.157C95.8025 74.3414 94.9348 72.6966 93.5249 71.5256C92.1131 70.353 90.3343 69.7997 88.5131 69.9722L75.6775 71.1756C75.676 71.176 75.6744 71.1756 75.6724 71.176L69.0138 71.8004L63.2533 59.8302C62.3904 58.0391 60.8765 56.6889 58.9905 56.0277C57.1029 55.3657 55.0768 55.4768 53.2857 56.3397C51.4946 57.2023 50.1453 58.7158 49.4864 60.6002C48.8275 62.4846 48.9403 64.5087 49.8024 66.2986L49.8803 66.4603C44.6256 66.2844 33.7406 64.8935 30.5499 56.6C28.1078 50.2637 31.9744 45.8834 36.4511 40.8114C39.628 37.2122 42.9132 33.4904 43.6195 28.8898C44.0712 25.9309 42.8717 24.0749 41.7861 23.0391C38.5958 19.9956 31.9202 19.8805 26.9491 20.3048C38.544 10.1451 53.72 3.97763 70.3105 3.97763C106.635 3.97763 136.188 33.5299 136.188 69.8551C136.188 106.18 106.635 135.733 70.3105 135.733ZM120.381 54.1741C118.361 61.7099 113.063 67.9477 106.027 71.1938C108.636 77.5969 112.014 87.0488 105 100.323C102.003 105.996 96.7295 113.997 88.6297 119.899C81.6069 125.017 73.8283 127.598 65.4589 127.598C64.136 127.598 62.7997 127.534 61.4479 127.405C51.652 126.467 46.8731 121.002 44.5888 116.583C41.0296 109.698 40.9892 100.266 44.3207 92.833L29.3812 88.8268C24.7854 87.5933 22.0487 82.8556 23.2806 78.2657C24.5114 73.671 29.2527 70.9355 33.8485 72.1651L57.3405 78.4618C57.3528 78.465 57.3655 78.4666 57.3777 78.4697L62.0075 79.7119C64.2262 80.3059 66.0845 81.7348 67.2393 83.7343C68.0824 85.1944 68.4724 86.8261 68.3909 88.4634L78.1141 87.7243C79.1652 87.6459 80.0792 88.431 80.1591 89.4802C80.239 90.5301 79.4528 91.4457 78.4032 91.5252L67.5529 92.3501L66.3724 96.7684C66.1446 97.6202 65.3742 98.1826 64.5323 98.1826C64.3693 98.1826 64.2036 98.1616 64.0391 98.1177C63.0219 97.8456 62.418 96.8008 62.6897 95.784L64.4259 89.2868C64.7573 88.0521 64.5841 86.7581 63.9387 85.6409C63.2928 84.5229 62.2567 83.7248 61.0208 83.3938L58.4499 82.7041C58.4423 82.7021 58.4352 82.7013 58.4277 82.6993L32.8622 75.8469C30.296 75.1596 27.6498 76.6877 26.9629 79.2524C26.2756 81.8131 27.8041 84.456 30.3695 85.1442L47.5774 89.7586C48.1489 89.9116 48.6168 90.3217 48.8438 90.8683C49.0708 91.4144 49.0312 92.0353 48.7366 92.5483C45.5257 98.1419 44.2333 107.592 47.9753 114.832C50.627 119.961 55.411 122.996 61.811 123.609C84.6426 125.788 97.2634 106.805 101.63 98.5413C108.105 86.2875 104.679 77.943 102.177 71.8499C102.041 71.5185 101.908 71.1942 101.78 70.8778C101.587 70.4009 101.595 69.8658 101.802 69.3948C102.009 68.9238 102.398 68.5564 102.88 68.3764C109.662 65.8462 114.828 60.1671 116.699 53.1854C119.893 41.2595 112.792 28.9586 100.87 25.7648C95.0942 24.2173 89.0608 25.0102 83.8813 27.9996C78.701 30.989 74.9957 35.8169 73.4482 41.594C72.8673 43.7656 72.6134 46.0099 72.6941 48.2633C72.7056 48.586 72.6348 48.9064 72.4888 49.1943C71.637 50.8719 70.5368 51.859 69.2182 52.1283C69.0221 52.1679 68.6875 52.2521 68.6017 52.3826C67.9539 53.3646 68.9351 58.1498 69.2981 59.8903C69.4358 60.1917 70.1662 61.5648 73.9323 67.0184C74.5303 67.8848 74.3131 69.0717 73.4471 69.67C72.5806 70.2676 71.3934 70.0509 70.7954 69.1848C65.8646 62.0437 65.7013 61.2939 65.5937 60.7979C64.4587 55.3641 64.1214 52.2529 65.4197 50.2842C66.0679 49.3015 67.0499 48.6853 68.4214 48.4006C68.491 48.3567 68.6579 48.2016 68.8714 47.8596C68.8334 45.4092 69.134 42.9727 69.7668 40.6085C71.5777 33.8471 75.914 28.1965 81.9767 24.6978C88.0377 21.2002 95.0981 20.2712 101.857 22.0825C115.809 25.8217 124.119 40.217 120.381 54.1741ZM96.3961 57.8663C95.619 57.156 95.5644 55.9506 96.2743 55.1735C96.9838 54.396 98.1896 54.3414 98.9671 55.0513C100.553 56.5007 102.877 56.7498 104.748 55.6714C105.891 55.0121 106.71 53.9475 107.051 52.6745C107.392 51.4007 107.216 50.0683 106.555 48.9226C105.476 47.0579 103.338 46.1112 101.236 46.5683C100.206 46.7922 99.1913 46.1404 98.9675 45.1122C98.7432 44.0836 99.3954 43.068 100.424 42.8441C104.151 42.031 107.941 43.7083 109.856 47.016C111.027 49.046 111.338 51.405 110.733 53.6616C110.128 55.9193 108.678 57.8065 106.651 58.9752C105.278 59.7657 103.768 60.1525 102.27 60.1525C100.147 60.1525 98.048 59.375 96.3961 57.8663ZM87.0581 49.3248C85.7724 50.8778 84.0774 51.7423 82.3496 51.7423C82.2021 51.7423 82.0546 51.736 81.9071 51.7233C80.0325 51.5624 78.3359 50.3851 77.2531 48.4931C76.7299 47.5796 77.0467 46.4149 77.9602 45.8921C78.8734 45.3693 80.0381 45.6856 80.5613 46.5992C81.0204 47.4008 81.6144 47.8722 82.2333 47.9252C82.8558 47.9798 83.5265 47.6124 84.1213 46.8942C84.7928 46.0835 85.9943 45.97 86.805 46.6411C87.6158 47.3122 87.7292 48.5137 87.0581 49.3248Z" fill="#B1E384"/>
</svg>
