<svg width="160" height="128" viewBox="0 0 160 128" fill="none" xmlns="http://www.w3.org/2000/svg">
<mask id="path-1-outside-1_69_3693" maskUnits="userSpaceOnUse" x="0.1875" y="-0.732422" width="159" height="128" fill="black">
<rect fill="white" x="0.1875" y="-0.732422" width="159" height="128"/>
<path d="M156.442 107.557C155.061 102.742 153.688 97.9237 152.293 93.1127C152.261 92.9993 152.21 92.9057 152.147 92.8301C152.508 92.5296 152.867 92.2245 153.218 91.9095C153.472 91.6818 153.505 91.4046 153.411 91.1662C149.008 64.3879 143.965 37.7194 139.563 10.9412C139.502 10.5659 139.239 10.4012 138.953 10.3958C138.915 10.3904 138.875 10.3868 138.833 10.3868C133.873 10.3904 128.914 10.4336 123.956 10.5101C124.063 8.55187 123.748 6.55583 123.044 4.90627C121.812 2.022 119.251 1.55403 116.464 2.66814C113.041 4.03783 112.817 6.70432 111.959 9.84597C111.869 10.1735 111.85 10.4795 111.886 10.7603C109.812 10.8143 107.736 10.8737 105.661 10.9385C105.875 8.28819 105.224 5.56861 103.62 3.57437C101.997 1.55493 99.0329 0.524516 96.6387 1.88611C93.5953 3.61757 93.0852 8.09291 92.8821 11.2004C92.8776 11.267 92.8767 11.3327 92.8767 11.3965C90.5447 11.491 88.2118 11.59 85.8799 11.6953C85.9142 9.09723 85.368 6.47394 84.439 4.68578C82.9493 1.81951 79.6766 0.740498 76.7741 2.27668C73.4048 4.06033 72.8071 8.00022 72.7873 11.437C72.7855 11.7709 72.8442 12.0661 72.948 12.3235C70.2404 12.463 67.5329 12.606 64.8254 12.7536C64.8091 9.95036 64.0137 7.11739 62.6297 5.16904C60.8042 2.59795 57.3528 1.40555 54.564 3.2162C51.4683 5.22574 51.3039 9.02883 51.6615 12.3136C51.7129 12.7851 51.879 13.1793 52.1183 13.497C49.6346 13.6536 47.151 13.8174 44.6692 13.9901C44.0607 14.0324 43.4522 14.0765 42.8446 14.1224C42.6685 11.8168 42.4681 9.35101 41.7739 7.16328C40.565 3.35389 36.9393 1.04827 33.2504 3.49338C29.6464 5.88179 28.572 10.6307 29.5949 14.5976C29.6843 14.9441 29.8288 15.2302 30.0129 15.4597C25.0935 16.1563 20.2156 17.1084 15.4163 18.4763C15.3639 18.4916 15.316 18.5105 15.2718 18.5321C15.0235 18.6275 14.8385 18.8507 14.8601 19.2034C14.8818 19.6687 14.9035 20.133 14.9251 20.5983C15.2267 29.7056 12.901 38.8075 11.2732 47.7113C9.49109 57.4576 7.70984 67.2038 5.92769 76.95C5.07273 81.6278 4.21686 86.3066 3.3619 90.9844C2.89876 93.5186 2.43561 96.0528 1.97157 98.5861C1.65829 100.298 0.953196 102.434 1.26557 104.212C1.7558 106.998 5.27857 108.447 7.44081 109.724C11.173 111.931 15.0813 113.798 19.1015 115.417C19.1033 115.472 19.106 115.529 19.1079 115.585C19.2063 118.284 18.5978 121.462 21.4091 122.835C24.6087 124.397 29.0189 124.65 32.5209 125.086C37.0621 125.651 41.6375 125.894 46.2085 126.061C55.3467 126.394 64.4986 126.309 73.6332 125.896C91.6055 125.083 109.497 122.994 127.28 120.323C132.407 119.553 137.526 118.733 142.639 117.879C145.391 117.419 148.141 116.95 150.89 116.473C152.694 116.16 155.674 116.219 157.262 115.308C159.538 114 156.96 109.378 156.438 107.557H156.442ZM130.333 78.0119C137.011 83.0218 143.983 87.6033 151.359 91.5279C142.929 98.6653 131.376 102.044 120.914 104.972C112.869 107.223 104.639 108.996 96.3254 109.96C96.3381 109.957 96.3507 109.953 96.3633 109.949C111.848 105.344 126.747 94.4392 130.334 78.0119H130.333ZM117.016 7.90392C117.242 7.45666 117.696 6.87621 118.264 6.80601C119.094 6.70432 118.636 6.59813 119.05 7.21638C119.47 7.84273 119.647 9.21512 119.522 10.5866C118.491 10.6064 117.461 10.6289 116.43 10.6514C116.603 9.74428 116.613 8.70306 117.015 7.90392H117.016ZM97.4268 11.2004C97.5144 9.85677 97.6336 8.2756 98.2123 7.03099C99.1205 5.07635 100.285 6.19676 100.76 7.97412C101.021 8.94874 101.127 10.044 101.022 11.0915C99.8229 11.1329 98.624 11.1761 97.425 11.2202C97.425 11.2139 97.4259 11.2076 97.4268 11.2004ZM77.983 7.26318C79.4789 5.48492 80.4783 6.63683 80.9008 8.37459C81.0011 8.78675 81.2286 10.3202 81.271 11.9095C79.9267 11.9734 78.5824 12.0391 77.239 12.1066C77.2977 11.9041 77.332 11.6818 77.3329 11.4379C77.3402 10.2293 77.1461 8.2585 77.983 7.26318ZM56.2071 12.3145C56.0789 11.1329 55.716 9.4437 56.1927 8.30709C56.5881 7.36397 57.6354 6.71962 58.679 7.44766C59.3336 7.90392 59.6071 9.31141 59.7651 10.0179C59.9592 10.8818 60.1488 11.9482 60.1921 13.0128C58.8343 13.0902 57.4765 13.1703 56.1186 13.2513C56.2107 12.9831 56.2459 12.6708 56.2071 12.3145ZM45.8049 15.4237C50.5799 15.1016 55.3576 14.8073 60.1362 14.5319C59.9303 16.1167 59.1981 17.4621 57.3898 17.795C54.5189 18.3242 55.735 22.6897 58.5978 22.1624C62.4961 21.4433 64.3857 18.0389 64.7577 14.2709C68.777 14.0495 72.7963 13.839 76.8165 13.6365C78.2917 13.5627 79.7678 13.4907 81.2439 13.4196C81.1338 14.9522 80.7302 16.1923 79.7091 16.0375C76.849 15.6037 75.6158 19.9666 78.5012 20.4048C83.2175 21.1212 85.3508 17.4297 85.7941 13.2099C88.3743 13.0938 90.9555 12.984 93.5375 12.8805C94.378 13.5852 95.8253 13.5429 96.6992 12.7572C98.0308 12.7068 99.3634 12.6591 100.695 12.6123C100.217 13.9883 99.2433 15.0926 97.5966 15.4264C94.7337 16.006 95.9453 20.3715 98.8045 19.7938C102.426 19.0612 104.71 15.9619 105.444 12.4567C107.918 12.3793 110.39 12.3091 112.864 12.247C113.696 12.7788 114.867 12.8238 115.643 12.1786C116.845 12.1507 118.046 12.1255 119.249 12.1021C118.861 13.4583 118.103 14.4914 116.9 14.2799C114.04 13.7778 112.813 18.1415 115.692 18.6473C120.491 19.4896 123.096 16.0663 123.787 12.0229C128.589 11.9482 133.391 11.9059 138.194 11.8996C142.489 37.9669 147.379 63.9316 151.689 89.9963C144.148 85.9484 137.028 81.2157 130.212 76.0438C129.84 75.7612 129.181 76.0519 129.099 76.4946C125.821 94.2907 109.33 105.202 92.7963 109.362C73.3777 114.247 52.5372 113.383 32.6491 113.401C27.7414 82.1021 22.1503 50.9169 16.4834 19.7479C23.6743 17.759 31.0304 16.6944 38.438 16.0051C38.4542 16.2913 38.4669 16.5774 38.4705 16.8618C38.4714 16.9383 38.0967 20.7234 37.7257 20.2311C35.9895 17.93 32.0434 20.1852 33.8029 22.517C36.0735 25.5254 40.4305 25.151 42.2063 21.7349C43.166 19.8892 43.1073 17.6798 42.9602 15.6262C43.9072 15.5551 44.8552 15.4876 45.8031 15.4237H45.8049ZM33.979 13.3944C33.5899 11.8852 33.6431 10.4084 34.3618 9.01354C34.7599 8.2414 35.9092 6.78711 37.0233 7.50436C37.4404 7.77344 37.5785 9.06933 37.676 9.4878C38.0552 11.1185 38.205 12.8328 38.3323 14.5013C36.8283 14.6408 35.3251 14.7965 33.8264 14.9711C34.0557 14.5373 34.1361 14.0045 33.979 13.3953V13.3944ZM7.74054 108.141C5.3517 106.71 2.42839 105.088 2.89966 101.911C3.21926 99.7596 3.6842 97.6195 4.07602 95.4786C5.67942 86.707 7.28372 77.9354 8.88711 69.1638C10.4553 60.5875 12.0235 52.0103 13.5917 43.434C14.2318 39.9324 14.945 36.419 15.5011 32.8877C16.1611 46.9653 16.8264 61.042 17.453 75.1205C17.8593 84.2376 18.2493 93.3566 18.6113 102.476C18.7612 106.241 18.9038 110.007 19.0438 113.772C15.14 112.173 11.3608 110.309 7.74054 108.14V108.141ZM154.022 114.401C145.778 115.85 137.522 117.242 129.246 118.51C112.387 121.092 95.4343 123.162 78.4001 124.143C61.9517 125.09 44.5365 125.887 28.2497 122.927C25.8492 122.491 23.2834 122.386 21.7432 120.426C20.249 118.527 20.6453 116.168 20.5587 113.798C20.3971 109.428 20.2282 105.06 20.0531 100.691C19.7191 92.3649 19.3624 84.0405 18.9923 75.7162C18.3224 60.646 17.6083 45.5767 16.9023 30.5083C21.9535 58.4133 26.8901 86.3399 31.276 114.357C31.3355 114.736 31.6001 114.901 31.889 114.903C31.9269 114.908 31.9657 114.911 32.0063 114.911C43.2518 114.889 54.5017 114.952 65.7345 114.342C72.8532 113.955 80.0287 113.414 87.0598 112.141C87.1447 112.171 87.2422 112.188 87.3523 112.183C99.1864 111.698 110.945 109.398 122.311 106.147C132.107 103.346 142.711 100.117 150.918 93.8128C151.971 97.445 153.011 101.081 154.051 104.716C154.565 106.51 155.078 108.303 155.594 110.095C155.837 110.938 156.238 111.853 156.351 112.719C156.597 114.605 155.423 114.155 154.021 114.401H154.022Z"/>
</mask>
<path d="M156.442 107.557C155.061 102.742 153.688 97.9237 152.293 93.1127C152.261 92.9993 152.21 92.9057 152.147 92.8301C152.508 92.5296 152.867 92.2245 153.218 91.9095C153.472 91.6818 153.505 91.4046 153.411 91.1662C149.008 64.3879 143.965 37.7194 139.563 10.9412C139.502 10.5659 139.239 10.4012 138.953 10.3958C138.915 10.3904 138.875 10.3868 138.833 10.3868C133.873 10.3904 128.914 10.4336 123.956 10.5101C124.063 8.55187 123.748 6.55583 123.044 4.90627C121.812 2.022 119.251 1.55403 116.464 2.66814C113.041 4.03783 112.817 6.70432 111.959 9.84597C111.869 10.1735 111.85 10.4795 111.886 10.7603C109.812 10.8143 107.736 10.8737 105.661 10.9385C105.875 8.28819 105.224 5.56861 103.62 3.57437C101.997 1.55493 99.0329 0.524516 96.6387 1.88611C93.5953 3.61757 93.0852 8.09291 92.8821 11.2004C92.8776 11.267 92.8767 11.3327 92.8767 11.3965C90.5447 11.491 88.2118 11.59 85.8799 11.6953C85.9142 9.09723 85.368 6.47394 84.439 4.68578C82.9493 1.81951 79.6766 0.740498 76.7741 2.27668C73.4048 4.06033 72.8071 8.00022 72.7873 11.437C72.7855 11.7709 72.8442 12.0661 72.948 12.3235C70.2404 12.463 67.5329 12.606 64.8254 12.7536C64.8091 9.95036 64.0137 7.11739 62.6297 5.16904C60.8042 2.59795 57.3528 1.40555 54.564 3.2162C51.4683 5.22574 51.3039 9.02883 51.6615 12.3136C51.7129 12.7851 51.879 13.1793 52.1183 13.497C49.6346 13.6536 47.151 13.8174 44.6692 13.9901C44.0607 14.0324 43.4522 14.0765 42.8446 14.1224C42.6685 11.8168 42.4681 9.35101 41.7739 7.16328C40.565 3.35389 36.9393 1.04827 33.2504 3.49338C29.6464 5.88179 28.572 10.6307 29.5949 14.5976C29.6843 14.9441 29.8288 15.2302 30.0129 15.4597C25.0935 16.1563 20.2156 17.1084 15.4163 18.4763C15.3639 18.4916 15.316 18.5105 15.2718 18.5321C15.0235 18.6275 14.8385 18.8507 14.8601 19.2034C14.8818 19.6687 14.9035 20.133 14.9251 20.5983C15.2267 29.7056 12.901 38.8075 11.2732 47.7113C9.49109 57.4576 7.70984 67.2038 5.92769 76.95C5.07273 81.6278 4.21686 86.3066 3.3619 90.9844C2.89876 93.5186 2.43561 96.0528 1.97157 98.5861C1.65829 100.298 0.953196 102.434 1.26557 104.212C1.7558 106.998 5.27857 108.447 7.44081 109.724C11.173 111.931 15.0813 113.798 19.1015 115.417C19.1033 115.472 19.106 115.529 19.1079 115.585C19.2063 118.284 18.5978 121.462 21.4091 122.835C24.6087 124.397 29.0189 124.65 32.5209 125.086C37.0621 125.651 41.6375 125.894 46.2085 126.061C55.3467 126.394 64.4986 126.309 73.6332 125.896C91.6055 125.083 109.497 122.994 127.28 120.323C132.407 119.553 137.526 118.733 142.639 117.879C145.391 117.419 148.141 116.95 150.89 116.473C152.694 116.16 155.674 116.219 157.262 115.308C159.538 114 156.96 109.378 156.438 107.557H156.442ZM130.333 78.0119C137.011 83.0218 143.983 87.6033 151.359 91.5279C142.929 98.6653 131.376 102.044 120.914 104.972C112.869 107.223 104.639 108.996 96.3254 109.96C96.3381 109.957 96.3507 109.953 96.3633 109.949C111.848 105.344 126.747 94.4392 130.334 78.0119H130.333ZM117.016 7.90392C117.242 7.45666 117.696 6.87621 118.264 6.80601C119.094 6.70432 118.636 6.59813 119.05 7.21638C119.47 7.84273 119.647 9.21512 119.522 10.5866C118.491 10.6064 117.461 10.6289 116.43 10.6514C116.603 9.74428 116.613 8.70306 117.015 7.90392H117.016ZM97.4268 11.2004C97.5144 9.85677 97.6336 8.2756 98.2123 7.03099C99.1205 5.07635 100.285 6.19676 100.76 7.97412C101.021 8.94874 101.127 10.044 101.022 11.0915C99.8229 11.1329 98.624 11.1761 97.425 11.2202C97.425 11.2139 97.4259 11.2076 97.4268 11.2004ZM77.983 7.26318C79.4789 5.48492 80.4783 6.63683 80.9008 8.37459C81.0011 8.78675 81.2286 10.3202 81.271 11.9095C79.9267 11.9734 78.5824 12.0391 77.239 12.1066C77.2977 11.9041 77.332 11.6818 77.3329 11.4379C77.3402 10.2293 77.1461 8.2585 77.983 7.26318ZM56.2071 12.3145C56.0789 11.1329 55.716 9.4437 56.1927 8.30709C56.5881 7.36397 57.6354 6.71962 58.679 7.44766C59.3336 7.90392 59.6071 9.31141 59.7651 10.0179C59.9592 10.8818 60.1488 11.9482 60.1921 13.0128C58.8343 13.0902 57.4765 13.1703 56.1186 13.2513C56.2107 12.9831 56.2459 12.6708 56.2071 12.3145ZM45.8049 15.4237C50.5799 15.1016 55.3576 14.8073 60.1362 14.5319C59.9303 16.1167 59.1981 17.4621 57.3898 17.795C54.5189 18.3242 55.735 22.6897 58.5978 22.1624C62.4961 21.4433 64.3857 18.0389 64.7577 14.2709C68.777 14.0495 72.7963 13.839 76.8165 13.6365C78.2917 13.5627 79.7678 13.4907 81.2439 13.4196C81.1338 14.9522 80.7302 16.1923 79.7091 16.0375C76.849 15.6037 75.6158 19.9666 78.5012 20.4048C83.2175 21.1212 85.3508 17.4297 85.7941 13.2099C88.3743 13.0938 90.9555 12.984 93.5375 12.8805C94.378 13.5852 95.8253 13.5429 96.6992 12.7572C98.0308 12.7068 99.3634 12.6591 100.695 12.6123C100.217 13.9883 99.2433 15.0926 97.5966 15.4264C94.7337 16.006 95.9453 20.3715 98.8045 19.7938C102.426 19.0612 104.71 15.9619 105.444 12.4567C107.918 12.3793 110.39 12.3091 112.864 12.247C113.696 12.7788 114.867 12.8238 115.643 12.1786C116.845 12.1507 118.046 12.1255 119.249 12.1021C118.861 13.4583 118.103 14.4914 116.9 14.2799C114.04 13.7778 112.813 18.1415 115.692 18.6473C120.491 19.4896 123.096 16.0663 123.787 12.0229C128.589 11.9482 133.391 11.9059 138.194 11.8996C142.489 37.9669 147.379 63.9316 151.689 89.9963C144.148 85.9484 137.028 81.2157 130.212 76.0438C129.84 75.7612 129.181 76.0519 129.099 76.4946C125.821 94.2907 109.33 105.202 92.7963 109.362C73.3777 114.247 52.5372 113.383 32.6491 113.401C27.7414 82.1021 22.1503 50.9169 16.4834 19.7479C23.6743 17.759 31.0304 16.6944 38.438 16.0051C38.4542 16.2913 38.4669 16.5774 38.4705 16.8618C38.4714 16.9383 38.0967 20.7234 37.7257 20.2311C35.9895 17.93 32.0434 20.1852 33.8029 22.517C36.0735 25.5254 40.4305 25.151 42.2063 21.7349C43.166 19.8892 43.1073 17.6798 42.9602 15.6262C43.9072 15.5551 44.8552 15.4876 45.8031 15.4237H45.8049ZM33.979 13.3944C33.5899 11.8852 33.6431 10.4084 34.3618 9.01354C34.7599 8.2414 35.9092 6.78711 37.0233 7.50436C37.4404 7.77344 37.5785 9.06933 37.676 9.4878C38.0552 11.1185 38.205 12.8328 38.3323 14.5013C36.8283 14.6408 35.3251 14.7965 33.8264 14.9711C34.0557 14.5373 34.1361 14.0045 33.979 13.3953V13.3944ZM7.74054 108.141C5.3517 106.71 2.42839 105.088 2.89966 101.911C3.21926 99.7596 3.6842 97.6195 4.07602 95.4786C5.67942 86.707 7.28372 77.9354 8.88711 69.1638C10.4553 60.5875 12.0235 52.0103 13.5917 43.434C14.2318 39.9324 14.945 36.419 15.5011 32.8877C16.1611 46.9653 16.8264 61.042 17.453 75.1205C17.8593 84.2376 18.2493 93.3566 18.6113 102.476C18.7612 106.241 18.9038 110.007 19.0438 113.772C15.14 112.173 11.3608 110.309 7.74054 108.14V108.141ZM154.022 114.401C145.778 115.85 137.522 117.242 129.246 118.51C112.387 121.092 95.4343 123.162 78.4001 124.143C61.9517 125.09 44.5365 125.887 28.2497 122.927C25.8492 122.491 23.2834 122.386 21.7432 120.426C20.249 118.527 20.6453 116.168 20.5587 113.798C20.3971 109.428 20.2282 105.06 20.0531 100.691C19.7191 92.3649 19.3624 84.0405 18.9923 75.7162C18.3224 60.646 17.6083 45.5767 16.9023 30.5083C21.9535 58.4133 26.8901 86.3399 31.276 114.357C31.3355 114.736 31.6001 114.901 31.889 114.903C31.9269 114.908 31.9657 114.911 32.0063 114.911C43.2518 114.889 54.5017 114.952 65.7345 114.342C72.8532 113.955 80.0287 113.414 87.0598 112.141C87.1447 112.171 87.2422 112.188 87.3523 112.183C99.1864 111.698 110.945 109.398 122.311 106.147C132.107 103.346 142.711 100.117 150.918 93.8128C151.971 97.445 153.011 101.081 154.051 104.716C154.565 106.51 155.078 108.303 155.594 110.095C155.837 110.938 156.238 111.853 156.351 112.719C156.597 114.605 155.423 114.155 154.021 114.401H154.022Z" fill="#FF56AD"/>
<path d="M156.442 107.557C155.061 102.742 153.688 97.9237 152.293 93.1127C152.261 92.9993 152.21 92.9057 152.147 92.8301C152.508 92.5296 152.867 92.2245 153.218 91.9095C153.472 91.6818 153.505 91.4046 153.411 91.1662C149.008 64.3879 143.965 37.7194 139.563 10.9412C139.502 10.5659 139.239 10.4012 138.953 10.3958C138.915 10.3904 138.875 10.3868 138.833 10.3868C133.873 10.3904 128.914 10.4336 123.956 10.5101C124.063 8.55187 123.748 6.55583 123.044 4.90627C121.812 2.022 119.251 1.55403 116.464 2.66814C113.041 4.03783 112.817 6.70432 111.959 9.84597C111.869 10.1735 111.85 10.4795 111.886 10.7603C109.812 10.8143 107.736 10.8737 105.661 10.9385C105.875 8.28819 105.224 5.56861 103.62 3.57437C101.997 1.55493 99.0329 0.524516 96.6387 1.88611C93.5953 3.61757 93.0852 8.09291 92.8821 11.2004C92.8776 11.267 92.8767 11.3327 92.8767 11.3965C90.5447 11.491 88.2118 11.59 85.8799 11.6953C85.9142 9.09723 85.368 6.47394 84.439 4.68578C82.9493 1.81951 79.6766 0.740498 76.7741 2.27668C73.4048 4.06033 72.8071 8.00022 72.7873 11.437C72.7855 11.7709 72.8442 12.0661 72.948 12.3235C70.2404 12.463 67.5329 12.606 64.8254 12.7536C64.8091 9.95036 64.0137 7.11739 62.6297 5.16904C60.8042 2.59795 57.3528 1.40555 54.564 3.2162C51.4683 5.22574 51.3039 9.02883 51.6615 12.3136C51.7129 12.7851 51.879 13.1793 52.1183 13.497C49.6346 13.6536 47.151 13.8174 44.6692 13.9901C44.0607 14.0324 43.4522 14.0765 42.8446 14.1224C42.6685 11.8168 42.4681 9.35101 41.7739 7.16328C40.565 3.35389 36.9393 1.04827 33.2504 3.49338C29.6464 5.88179 28.572 10.6307 29.5949 14.5976C29.6843 14.9441 29.8288 15.2302 30.0129 15.4597C25.0935 16.1563 20.2156 17.1084 15.4163 18.4763C15.3639 18.4916 15.316 18.5105 15.2718 18.5321C15.0235 18.6275 14.8385 18.8507 14.8601 19.2034C14.8818 19.6687 14.9035 20.133 14.9251 20.5983C15.2267 29.7056 12.901 38.8075 11.2732 47.7113C9.49109 57.4576 7.70984 67.2038 5.92769 76.95C5.07273 81.6278 4.21686 86.3066 3.3619 90.9844C2.89876 93.5186 2.43561 96.0528 1.97157 98.5861C1.65829 100.298 0.953196 102.434 1.26557 104.212C1.7558 106.998 5.27857 108.447 7.44081 109.724C11.173 111.931 15.0813 113.798 19.1015 115.417C19.1033 115.472 19.106 115.529 19.1079 115.585C19.2063 118.284 18.5978 121.462 21.4091 122.835C24.6087 124.397 29.0189 124.65 32.5209 125.086C37.0621 125.651 41.6375 125.894 46.2085 126.061C55.3467 126.394 64.4986 126.309 73.6332 125.896C91.6055 125.083 109.497 122.994 127.28 120.323C132.407 119.553 137.526 118.733 142.639 117.879C145.391 117.419 148.141 116.95 150.89 116.473C152.694 116.16 155.674 116.219 157.262 115.308C159.538 114 156.96 109.378 156.438 107.557H156.442ZM130.333 78.0119C137.011 83.0218 143.983 87.6033 151.359 91.5279C142.929 98.6653 131.376 102.044 120.914 104.972C112.869 107.223 104.639 108.996 96.3254 109.96C96.3381 109.957 96.3507 109.953 96.3633 109.949C111.848 105.344 126.747 94.4392 130.334 78.0119H130.333ZM117.016 7.90392C117.242 7.45666 117.696 6.87621 118.264 6.80601C119.094 6.70432 118.636 6.59813 119.05 7.21638C119.47 7.84273 119.647 9.21512 119.522 10.5866C118.491 10.6064 117.461 10.6289 116.43 10.6514C116.603 9.74428 116.613 8.70306 117.015 7.90392H117.016ZM97.4268 11.2004C97.5144 9.85677 97.6336 8.2756 98.2123 7.03099C99.1205 5.07635 100.285 6.19676 100.76 7.97412C101.021 8.94874 101.127 10.044 101.022 11.0915C99.8229 11.1329 98.624 11.1761 97.425 11.2202C97.425 11.2139 97.4259 11.2076 97.4268 11.2004ZM77.983 7.26318C79.4789 5.48492 80.4783 6.63683 80.9008 8.37459C81.0011 8.78675 81.2286 10.3202 81.271 11.9095C79.9267 11.9734 78.5824 12.0391 77.239 12.1066C77.2977 11.9041 77.332 11.6818 77.3329 11.4379C77.3402 10.2293 77.1461 8.2585 77.983 7.26318ZM56.2071 12.3145C56.0789 11.1329 55.716 9.4437 56.1927 8.30709C56.5881 7.36397 57.6354 6.71962 58.679 7.44766C59.3336 7.90392 59.6071 9.31141 59.7651 10.0179C59.9592 10.8818 60.1488 11.9482 60.1921 13.0128C58.8343 13.0902 57.4765 13.1703 56.1186 13.2513C56.2107 12.9831 56.2459 12.6708 56.2071 12.3145ZM45.8049 15.4237C50.5799 15.1016 55.3576 14.8073 60.1362 14.5319C59.9303 16.1167 59.1981 17.4621 57.3898 17.795C54.5189 18.3242 55.735 22.6897 58.5978 22.1624C62.4961 21.4433 64.3857 18.0389 64.7577 14.2709C68.777 14.0495 72.7963 13.839 76.8165 13.6365C78.2917 13.5627 79.7678 13.4907 81.2439 13.4196C81.1338 14.9522 80.7302 16.1923 79.7091 16.0375C76.849 15.6037 75.6158 19.9666 78.5012 20.4048C83.2175 21.1212 85.3508 17.4297 85.7941 13.2099C88.3743 13.0938 90.9555 12.984 93.5375 12.8805C94.378 13.5852 95.8253 13.5429 96.6992 12.7572C98.0308 12.7068 99.3634 12.6591 100.695 12.6123C100.217 13.9883 99.2433 15.0926 97.5966 15.4264C94.7337 16.006 95.9453 20.3715 98.8045 19.7938C102.426 19.0612 104.71 15.9619 105.444 12.4567C107.918 12.3793 110.39 12.3091 112.864 12.247C113.696 12.7788 114.867 12.8238 115.643 12.1786C116.845 12.1507 118.046 12.1255 119.249 12.1021C118.861 13.4583 118.103 14.4914 116.9 14.2799C114.04 13.7778 112.813 18.1415 115.692 18.6473C120.491 19.4896 123.096 16.0663 123.787 12.0229C128.589 11.9482 133.391 11.9059 138.194 11.8996C142.489 37.9669 147.379 63.9316 151.689 89.9963C144.148 85.9484 137.028 81.2157 130.212 76.0438C129.84 75.7612 129.181 76.0519 129.099 76.4946C125.821 94.2907 109.33 105.202 92.7963 109.362C73.3777 114.247 52.5372 113.383 32.6491 113.401C27.7414 82.1021 22.1503 50.9169 16.4834 19.7479C23.6743 17.759 31.0304 16.6944 38.438 16.0051C38.4542 16.2913 38.4669 16.5774 38.4705 16.8618C38.4714 16.9383 38.0967 20.7234 37.7257 20.2311C35.9895 17.93 32.0434 20.1852 33.8029 22.517C36.0735 25.5254 40.4305 25.151 42.2063 21.7349C43.166 19.8892 43.1073 17.6798 42.9602 15.6262C43.9072 15.5551 44.8552 15.4876 45.8031 15.4237H45.8049ZM33.979 13.3944C33.5899 11.8852 33.6431 10.4084 34.3618 9.01354C34.7599 8.2414 35.9092 6.78711 37.0233 7.50436C37.4404 7.77344 37.5785 9.06933 37.676 9.4878C38.0552 11.1185 38.205 12.8328 38.3323 14.5013C36.8283 14.6408 35.3251 14.7965 33.8264 14.9711C34.0557 14.5373 34.1361 14.0045 33.979 13.3953V13.3944ZM7.74054 108.141C5.3517 106.71 2.42839 105.088 2.89966 101.911C3.21926 99.7596 3.6842 97.6195 4.07602 95.4786C5.67942 86.707 7.28372 77.9354 8.88711 69.1638C10.4553 60.5875 12.0235 52.0103 13.5917 43.434C14.2318 39.9324 14.945 36.419 15.5011 32.8877C16.1611 46.9653 16.8264 61.042 17.453 75.1205C17.8593 84.2376 18.2493 93.3566 18.6113 102.476C18.7612 106.241 18.9038 110.007 19.0438 113.772C15.14 112.173 11.3608 110.309 7.74054 108.14V108.141ZM154.022 114.401C145.778 115.85 137.522 117.242 129.246 118.51C112.387 121.092 95.4343 123.162 78.4001 124.143C61.9517 125.09 44.5365 125.887 28.2497 122.927C25.8492 122.491 23.2834 122.386 21.7432 120.426C20.249 118.527 20.6453 116.168 20.5587 113.798C20.3971 109.428 20.2282 105.06 20.0531 100.691C19.7191 92.3649 19.3624 84.0405 18.9923 75.7162C18.3224 60.646 17.6083 45.5767 16.9023 30.5083C21.9535 58.4133 26.8901 86.3399 31.276 114.357C31.3355 114.736 31.6001 114.901 31.889 114.903C31.9269 114.908 31.9657 114.911 32.0063 114.911C43.2518 114.889 54.5017 114.952 65.7345 114.342C72.8532 113.955 80.0287 113.414 87.0598 112.141C87.1447 112.171 87.2422 112.188 87.3523 112.183C99.1864 111.698 110.945 109.398 122.311 106.147C132.107 103.346 142.711 100.117 150.918 93.8128C151.971 97.445 153.011 101.081 154.051 104.716C154.565 106.51 155.078 108.303 155.594 110.095C155.837 110.938 156.238 111.853 156.351 112.719C156.597 114.605 155.423 114.155 154.021 114.401H154.022Z" stroke="#FF56AD" stroke-width="2" mask="url(#path-1-outside-1_69_3693)"/>
<path d="M128.096 41.7394C117.7 42.2709 107.309 42.8839 96.9174 43.4969C91.5969 43.8108 86.2764 44.1246 80.9552 44.4275C77.029 44.6507 73.1013 44.8554 69.1737 45.0602C65.246 45.2649 61.3182 45.4696 57.3918 45.6928C55.9153 45.7768 54.4056 45.8373 52.8781 45.8986C46.5924 46.1508 40.0064 46.415 34.1959 48.3683L128.096 41.7394ZM128.096 41.7394C128.784 41.6794 129.474 41.6572 130.163 41.635C130.898 41.6114 131.633 41.5877 132.367 41.5181M128.096 41.7394L133.124 40.763C133.148 41.2022 132.757 41.4812 132.367 41.5181M132.367 41.5181L132.414 42.0158C132.948 41.9653 133.667 41.5517 133.624 40.7363L133.624 40.7355C133.551 39.4235 133.479 38.1112 133.407 36.7989L133.398 36.6358C133.329 35.3779 133.26 34.1199 133.191 32.8621C133.16 32.3057 133.171 31.6728 133.182 30.9869C133.189 30.5316 133.197 30.0529 133.193 29.5577C133.185 28.3653 133.108 27.1061 132.742 26.1239L132.274 26.2985L132.742 26.1239C132.141 24.509 130.675 23.8613 129.194 23.5995C128.034 23.3943 126.753 23.408 125.697 23.4193C125.415 23.4223 125.149 23.4251 124.906 23.4236L124.905 23.4236C120.775 23.3985 116.638 24.0233 112.571 24.6375C111.186 24.8465 109.81 25.0544 108.444 25.2349C103.189 25.9297 97.9193 26.5175 92.6399 27.0011L92.6398 27.0011C82.0811 27.9691 71.4845 28.5174 60.8816 28.6423L60.8816 28.6423C59.1198 28.6632 57.355 28.6707 55.5885 28.6783C47.0349 28.715 38.4402 28.7519 29.9379 30.3017C29.3999 30.3995 29.0799 30.7734 29.0004 31.2093C28.9484 31.4157 28.9526 31.637 29.0187 31.8628C30.5658 37.1524 31.837 42.4983 32.7714 47.9258L32.7715 47.926C32.838 48.3112 33.1088 48.5847 33.3799 48.7334C33.6502 48.8816 34.0122 48.9574 34.355 48.8423L34.3552 48.8423C40.0908 46.9141 46.5839 46.6529 52.8641 46.4002C54.4002 46.3384 55.9237 46.2771 57.4202 46.192C61.3452 45.9689 65.2717 45.7642 69.1996 45.5595L69.2001 45.5595C73.1274 45.3548 77.0561 45.15 80.9836 44.9267L80.9837 44.9267C86.307 44.6237 91.6286 44.3098 96.9496 43.9959C107.339 43.383 117.727 42.7702 128.121 42.2388L128.13 42.2383L128.139 42.2376C128.814 42.1787 129.491 42.1569 130.184 42.1346L130.248 42.1325C130.958 42.1097 131.685 42.085 132.414 42.0158L132.367 41.5181ZM59.1208 31.1685C68.7593 31.0974 78.3949 30.6771 88.0026 29.9113H88.0036L88.0234 29.9097C97.1243 29.1834 106.174 28.0904 115.204 26.8097C117.864 26.4325 120.504 26.0752 123.162 25.9702C123.429 25.9596 123.722 25.943 124.034 25.9253C124.948 25.8734 126.017 25.8127 127.046 25.8709C127.73 25.9095 128.364 26.0001 128.892 26.1705C129.421 26.3414 129.802 26.5795 130.034 26.8848C130.241 27.159 130.4 27.5726 130.51 28.112C130.618 28.6449 130.67 29.2597 130.692 29.9039C130.714 30.5468 130.706 31.2027 130.698 31.8196L130.698 31.8467C130.69 32.4458 130.682 33.0175 130.707 33.4783L130.707 33.4785L131.043 39.591C130.76 39.603 130.471 39.6125 130.179 39.6222C129.475 39.6456 128.754 39.6695 128.059 39.7296C117.668 40.2607 107.279 40.8735 96.8926 41.4862C91.1767 41.8234 85.4615 42.1605 79.747 42.4839C76.176 42.6862 72.5963 42.8715 69.0151 43.0568C64.7384 43.2782 60.4598 43.4997 56.1916 43.7502H56.1916C54.8199 43.8308 53.4164 43.8916 51.9942 43.9533C46.3417 44.1983 40.3941 44.456 34.9787 46.0189C34.1465 41.4646 33.0824 36.9682 31.8218 32.5155C39.61 31.2409 47.4767 31.2137 55.3959 31.1862C56.6363 31.1819 57.8779 31.1776 59.1208 31.1685L59.1208 31.1685Z" fill="#FF56AD" stroke="#FF56AD"/>
<path d="M90.9069 54.2553L90.9069 54.2552C90.2811 52.8079 88.8737 52.3748 87.616 52.5877C86.3799 52.7969 85.1431 53.6469 84.7495 54.9418L84.7495 54.9418C82.9336 60.9182 80.5639 66.6197 77.5935 72.1173C76.565 74.0208 77.5307 75.8257 78.9272 76.6517C79.6277 77.066 80.4733 77.2632 81.2905 77.1049C82.1229 76.9436 82.8796 76.4214 83.3836 75.4887L83.3837 75.4887C84.7395 72.9798 85.9835 70.4258 87.1186 67.8264C87.162 68.3738 87.2026 68.9242 87.2432 69.4752C87.3792 71.3186 87.5157 73.1684 87.7588 74.9332L87.7588 74.9332C88.5316 80.5405 89.7429 86.0599 91.2758 91.4998C91.5622 92.5164 92.1893 93.2041 92.9622 93.5752C93.7235 93.9407 94.5986 93.987 95.3882 93.7861C96.1774 93.5853 96.9176 93.128 97.3908 92.44C97.8724 91.7397 98.0517 90.8356 97.7644 89.8157C96.0351 83.6774 94.7113 77.4369 93.9863 71.1066L93.4895 71.1635L93.9863 71.1066C93.8537 69.9489 93.7458 68.7923 93.6382 67.6381C93.2166 63.1162 92.7984 58.631 90.9069 54.2553Z" fill="#FF56AD" stroke="#FF56AD"/>
</svg>
