<svg width="19" height="19" viewBox="0 0 19 19" fill="none" xmlns="http://www.w3.org/2000/svg">
<path d="M0.748572 17.1973C0.60792 17.6455 0.726756 18.1305 1.05866 18.4629C1.39082 18.7953 1.87646 18.9146 2.32408 18.7748L5.40324 17.813C6.70027 18.4923 8.1631 18.8508 9.64215 18.8508C14.812 18.8508 19.1204 14.5102 18.7857 9.10684C18.5011 4.51065 14.8205 0.829916 10.2243 0.54546C4.82816 0.215134 0.480469 4.50893 0.480469 9.68913C0.480469 11.2817 0.895677 12.845 1.68242 14.219L0.748572 17.1973ZM1.05305 9.68913C1.05305 4.8192 5.1355 0.80601 10.189 1.11694C14.4973 1.38369 17.9474 4.83387 18.2142 9.14237C18.5245 14.1492 14.5592 18.2782 9.64215 18.2782C8.21708 18.2782 6.80847 17.9234 5.5682 17.2523C5.49901 17.2147 5.41871 17.2082 5.34677 17.2307L2.15355 18.2282C1.90554 18.3058 1.64748 18.2424 1.46408 18.0582C1.28038 17.8743 1.2172 17.6166 1.29494 17.3687L2.26652 14.2698C2.29083 14.1924 2.28107 14.1083 2.23968 14.0383C1.46349 12.7262 1.05305 11.2221 1.05305 9.68913Z" fill="#C1C1C1"/>
</svg>
