<svg width="163" height="163" viewBox="0 0 163 163" fill="none" xmlns="http://www.w3.org/2000/svg">
<g clip-path="url(#clip0_69_3724)">
<path d="M120.896 141.979H12.9012C7.63825 141.979 3.37207 137.713 3.37207 132.451V65.7478C3.37207 60.4852 7.63825 56.219 12.9012 56.219H120.896C126.159 56.219 130.425 60.4852 130.425 65.7478V132.451C130.425 137.713 126.159 141.979 120.896 141.979Z" stroke="#00BC87" stroke-width="5" stroke-miterlimit="10" stroke-linecap="round" stroke-linejoin="round"/>
<path d="M43.0759 126.098C57.987 126.098 70.0747 114.01 70.0747 99.0989C70.0747 84.1879 57.987 72.1001 43.0759 72.1001C28.1649 72.1001 16.0771 84.1879 16.0771 99.0989C16.0771 114.01 28.1649 126.098 43.0759 126.098Z" stroke="#00BC87" stroke-width="5" stroke-miterlimit="10" stroke-linecap="round" stroke-linejoin="round"/>
<path d="M51.6339 110.216C46.9074 114.943 39.2444 114.943 34.5176 110.216" stroke="#00BC87" stroke-width="5" stroke-miterlimit="10" stroke-linecap="round" stroke-linejoin="round"/>
<circle cx="32.8353" cy="97.5111" r="3.16341" fill="#00BC87"/>
<circle cx="53.3167" cy="97.5111" r="3.16341" fill="#00BC87"/>
<path d="M43.0756 86.9965C38.9625 86.9965 35.6279 83.6619 35.6279 79.5485C35.6279 75.4348 38.9625 72.1006 43.0756 72.1006" stroke="#00BC87" stroke-width="5" stroke-miterlimit="10" stroke-linecap="round" stroke-linejoin="round"/>
<path d="M117.72 68.9243H82.7803V81.6295H117.72V68.9243Z" stroke="#00BC87" stroke-width="5" stroke-miterlimit="10" stroke-linecap="round" stroke-linejoin="round"/>
<path d="M82.7803 97.511H117.72" stroke="#00BC87" stroke-width="5" stroke-miterlimit="10" stroke-linecap="round" stroke-linejoin="round"/>
<path d="M82.7803 113.393H117.72" stroke="#00BC87" stroke-width="5" stroke-miterlimit="10" stroke-linecap="round" stroke-linejoin="round"/>
<path d="M66.8984 129.274H117.72" stroke="#00BC87" stroke-width="5" stroke-miterlimit="10" stroke-linecap="round" stroke-linejoin="round"/>
<path d="M44.2129 56.219L117.284 22.1718C122.055 19.9514 127.725 22.0162 129.945 26.7869L158.119 87.2483C160.34 92.0194 158.275 97.6857 153.504 99.9089L130.425 110.664" stroke="#00BC87" stroke-width="5" stroke-miterlimit="10" stroke-linecap="round" stroke-linejoin="round"/>
<path d="M119.771 35.0295L74.5596 56.219" stroke="#00BC87" stroke-width="5" stroke-miterlimit="10" stroke-linecap="round" stroke-linejoin="round"/>
<path d="M125.136 46.5469L104.379 56.219" stroke="#00BC87" stroke-width="5" stroke-miterlimit="10" stroke-linecap="round" stroke-linejoin="round"/>
</g>
<defs>
<clipPath id="clip0_69_3724">
<rect width="161.967" height="161.967" fill="white" transform="translate(0.208984 0.645996)"/>
</clipPath>
</defs>
</svg>
