<svg width="177" height="48" viewBox="0 0 177 48" fill="none" xmlns="http://www.w3.org/2000/svg">
<path d="M2.50335 0.236548C2.93113 0.162046 3.39495 0.113982 3.89243 0.094756C4.38991 0.0755298 4.78405 0.065918 5.07244 0.065918C5.36083 0.065918 5.75016 0.0755298 6.19717 0.094756C6.64417 0.113982 7.07436 0.162046 7.49012 0.236548L11.2296 12.325C11.3185 12.6278 11.4363 13.0556 11.5877 13.6083C11.7391 14.1635 11.8953 14.7475 12.0587 15.3651C12.2222 15.9827 12.3639 16.5547 12.4841 17.0834C12.6043 17.6121 12.6836 17.9967 12.7196 18.2346H12.9263C12.9768 17.9967 13.0609 17.6121 13.181 17.0834C13.3012 16.5547 13.443 15.9827 13.6064 15.3651C13.7699 14.7475 13.9285 14.1635 14.0775 13.6083C14.2289 13.0532 14.349 12.6254 14.4355 12.325L18.175 0.236548C18.6292 0.162046 19.0666 0.113982 19.4872 0.094756C19.9078 0.0755298 20.2779 0.065918 20.5927 0.065918C20.8835 0.065918 21.2656 0.0755298 21.7439 0.094756C22.2221 0.113982 22.6956 0.162046 23.1594 0.236548L25.1613 25.9611C24.897 26.0356 24.5845 26.0933 24.2265 26.1317C23.8684 26.1702 23.5295 26.1894 23.2171 26.1894C22.9263 26.1894 22.6451 26.1798 22.3663 26.1606C22.0899 26.1413 21.8064 26.1077 21.5156 26.0572L20.5903 11.89C20.5519 11.2219 20.5158 10.4432 20.4774 9.54679C20.4389 8.65278 20.4053 7.74194 20.374 6.81668C20.3428 5.89143 20.3139 5.05749 20.2899 4.31489H20.0832L14.7576 22.051C14.4668 22.1014 14.1448 22.1399 13.7843 22.1639C13.4262 22.1904 13.1017 22.2024 12.811 22.2024C12.5202 22.2024 12.2005 22.1904 11.8472 22.1639C11.494 22.1399 11.1791 22.1014 10.9028 22.051L5.57712 4.31489H5.37044C5.34401 5.05749 5.31276 5.89143 5.27671 6.81668C5.23826 7.74194 5.20462 8.65278 5.17337 9.54679C5.14213 10.4408 5.10608 11.2219 5.07003 11.89L4.12555 26.0572C3.84918 26.1077 3.56558 26.1413 3.27479 26.1606C2.98399 26.1798 2.68839 26.1894 2.38798 26.1894C2.08758 26.1894 1.74152 26.1702 1.39545 26.1317C1.04938 26.0933 0.748963 26.038 0.499023 25.9611L2.50095 0.236548H2.50335Z" fill="white"/>
<path d="M45.9644 16.7062C45.9644 18.6216 45.6592 20.3135 45.0488 21.7867C44.4384 23.2599 43.5323 24.4159 42.3283 25.2522C41.1267 26.0886 39.6294 26.5091 37.8414 26.5091C36.0534 26.5091 34.561 26.0862 33.3641 25.2426C32.1673 24.3991 31.2685 23.2383 30.6629 21.7579C30.0572 20.2775 29.7568 18.5952 29.7568 16.7062C29.7568 14.8173 30.062 13.0989 30.6725 11.6257C31.2829 10.1525 32.1889 8.99656 33.393 8.16023C34.5946 7.32389 36.0774 6.90332 37.8414 6.90332C39.6054 6.90332 41.1435 7.3263 42.3475 8.16984C43.5492 9.01339 44.4528 10.1718 45.0584 11.645C45.6616 13.1182 45.9644 14.8052 45.9644 16.7062ZM33.5732 16.7062C33.5732 17.891 33.6982 19.0134 33.9505 20.078C34.2029 21.1427 34.6403 22.0054 35.2627 22.6663C35.8852 23.3272 36.7576 23.6589 37.8775 23.6589C38.9974 23.6589 39.8481 23.3272 40.4658 22.6663C41.0834 22.0054 41.516 21.1427 41.7684 20.078C42.0207 19.0134 42.1457 17.891 42.1457 16.7062C42.1457 15.5214 42.0207 14.3991 41.7684 13.3345C41.516 12.2698 41.081 11.4022 40.4658 10.7269C39.8481 10.054 38.9854 9.71754 37.8775 9.71754C36.7696 9.71754 35.8852 10.054 35.2627 10.7269C34.6403 11.3998 34.2005 12.2698 33.9505 13.3345C33.6982 14.3991 33.5732 15.5214 33.5732 16.7062Z" fill="white"/>
<path d="M52.3273 7.22243C53.0963 7.22243 53.6298 7.45314 53.9327 7.91216C54.2355 8.37119 54.3869 9.01766 54.3869 9.84919V26.0183C53.8822 26.1193 53.279 26.1698 52.5748 26.1698C51.8707 26.1698 51.2338 26.1193 50.7051 26.0183V7.48919L50.9502 7.22483H52.3297L52.3273 7.22243ZM60.9406 14.1366C60.9406 12.7764 60.7555 11.8127 60.383 11.2479C60.0105 10.6807 59.4289 10.3971 58.6358 10.3971C58.0062 10.3971 57.3333 10.5918 56.6147 10.9835C55.8961 11.3729 55.2232 11.904 54.5936 12.5697C53.9639 13.2378 53.4736 13.9804 53.1204 14.7975V11.1325C53.6611 10.3395 54.2883 9.63771 54.9997 9.02728C55.7111 8.41685 56.4729 7.9362 57.2852 7.58292C58.0975 7.22964 58.9242 7.0542 59.7678 7.0542C60.8637 7.0542 61.7721 7.31615 62.4979 7.83766C63.2213 8.35917 63.7596 9.06573 64.1129 9.95253C64.4662 10.8393 64.6416 11.8247 64.6416 12.9085V26.0159C64.1249 26.1169 63.5145 26.1674 62.8103 26.1674C62.1062 26.1674 61.4693 26.1169 60.9406 26.0159V14.1342V14.1366ZM71.2145 14.0982C71.2145 12.7379 71.0223 11.7814 70.6377 11.2263C70.2532 10.6711 69.6716 10.3947 68.8906 10.3947C68.2729 10.3947 67.612 10.5798 66.9079 10.9523C66.2013 11.3248 65.5284 11.8463 64.8867 12.5192C64.2451 13.1921 63.7091 13.978 63.2813 14.872V10.6423C63.899 9.96215 64.5743 9.35172 65.3121 8.81098C66.0499 8.27025 66.819 7.84247 67.6264 7.52764C68.4315 7.21281 69.2511 7.0566 70.0826 7.0566C71.1785 7.0566 72.0821 7.32096 72.7935 7.84968C73.5048 8.3784 74.036 9.08736 74.3892 9.97416C74.7425 10.861 74.918 11.8535 74.918 12.9494V22.1106C74.918 22.7667 74.9588 23.382 75.0405 23.9612C75.1222 24.5403 75.276 25.045 75.5019 25.4728C75.2256 25.6987 74.8795 25.8886 74.4637 26.04C74.048 26.1914 73.6202 26.2659 73.1804 26.2659C72.4618 26.2659 71.9547 26.0664 71.6591 25.6699C71.3635 25.2733 71.2145 24.6845 71.2145 23.9035V14.1006V14.0982Z" fill="white"/>
<path d="M87.2715 24.6201C87.2955 24.1923 87.4325 23.7237 87.6776 23.2118C87.9228 22.6999 88.204 22.3082 88.5188 22.0318C89.3119 22.4596 90.165 22.8465 91.0783 23.1926C91.9915 23.5386 92.9144 23.7117 93.8444 23.7117C94.9139 23.7117 95.7622 23.4786 96.3847 23.0123C97.0071 22.5461 97.3267 21.9549 97.3388 21.2363C97.3388 20.6812 97.1297 20.1717 96.7163 19.7054C96.3005 19.2392 95.6901 18.8619 94.885 18.5711L92.6932 17.7588C91.8233 17.444 91.0254 17.0498 90.2948 16.5788C89.5642 16.1077 88.9826 15.531 88.5476 14.8508C88.1126 14.1707 87.8963 13.3536 87.8963 12.3947C87.8963 11.2604 88.1847 10.2846 88.7663 9.46753C89.3455 8.64801 90.1362 8.01596 91.1359 7.56895C92.1381 7.12194 93.2604 6.89844 94.5077 6.89844C95.5147 6.89844 96.5889 7.03062 97.7281 7.29498C98.8672 7.55934 99.8213 7.87416 100.59 8.23946C100.602 8.69368 100.509 9.18634 100.307 9.72227C100.105 10.2582 99.8357 10.6764 99.4945 10.9792C98.8528 10.6764 98.091 10.3976 97.209 10.138C96.327 9.88089 95.4137 9.75111 94.4693 9.75111C93.6257 9.75111 92.9384 9.9626 92.4097 10.3832C91.8809 10.8061 91.6166 11.3613 91.6166 12.0558C91.6166 12.5966 91.8209 13.0508 92.2294 13.4161C92.638 13.7814 93.246 14.1154 94.0511 14.4183L96.375 15.2882C97.7858 15.8049 98.9345 16.5139 99.8213 17.4127C100.708 18.3139 101.153 19.4867 101.153 20.9359C101.153 22.6735 100.48 24.0361 99.1316 25.0263C97.7834 26.014 96.0146 26.5091 93.8252 26.5091C92.5034 26.5091 91.2849 26.3192 90.1698 25.9419C89.0547 25.5646 88.0886 25.1224 87.2715 24.6201Z" fill="white"/>
<path d="M106.971 7.22251C107.776 7.22251 108.353 7.47485 108.699 7.97713C109.045 8.48182 109.218 9.17876 109.218 10.0728V31.7574C109.218 32.589 109.084 33.197 108.812 33.5791C108.541 33.9636 108.009 34.1559 107.216 34.1559H105.837L105.592 33.9107V7.46764L105.837 7.22251H106.971ZM120.855 16.4775C120.855 18.7317 120.502 20.5847 119.797 22.041C119.093 23.495 118.185 24.5741 117.077 25.2806C115.969 25.9872 114.823 26.3381 113.64 26.3381C112.458 26.3381 111.343 26.0929 110.336 25.6027C109.329 25.1124 108.384 24.538 107.502 23.8843L107.899 20.9187C108.617 21.4739 109.43 22.017 110.336 22.5529C111.242 23.0888 112.182 23.3556 113.15 23.3556C113.869 23.3556 114.525 23.1105 115.123 22.6202C115.722 22.1299 116.2 21.3729 116.558 20.3539C116.916 19.335 117.096 18.0372 117.096 16.4631C117.096 14.8889 116.933 13.6873 116.606 12.7428C116.279 11.7983 115.844 11.1062 115.303 10.664C114.763 10.2242 114.176 10.0031 113.547 10.0031C112.917 10.0031 112.208 10.1785 111.497 10.5318C110.785 10.8851 110.129 11.4234 109.533 12.1468C108.935 12.8702 108.471 13.7882 108.144 14.8961L107.406 12.0627C107.659 11.2191 108.11 10.4044 108.766 9.61615C109.42 8.83029 110.228 8.18141 111.184 7.66951C112.141 7.16002 113.205 6.90527 114.376 6.90527C115.798 6.90527 116.993 7.31143 117.954 8.12373C118.918 8.93603 119.641 10.0608 120.127 11.4955C120.612 12.9303 120.855 14.5933 120.855 16.4823V16.4775Z" fill="white"/>
<path d="M124.272 20.9552C124.272 19.5205 124.587 18.3429 125.216 17.4224C125.846 16.5044 126.702 15.8267 127.785 15.3917C128.867 14.9567 130.095 14.7404 131.47 14.7404C132.188 14.7404 132.996 14.7716 133.897 14.8341C134.798 14.8966 135.625 15.024 136.38 15.2114V17.7036C135.699 17.5402 134.93 17.432 134.075 17.3816C133.219 17.3311 132.419 17.3071 131.676 17.3071C130.494 17.3071 129.576 17.6075 128.929 18.2035C128.281 18.8019 127.956 19.6286 127.956 20.6861C127.956 21.4912 128.18 22.1713 128.627 22.7264C129.074 23.2816 129.725 23.558 130.58 23.558C131.513 23.558 132.503 23.2311 133.556 22.575C134.608 21.9213 135.486 20.9576 136.19 19.6863L136.776 22.5942C136.322 23.123 135.762 23.6901 135.094 24.2934C134.426 24.899 133.652 25.4181 132.77 25.8507C131.888 26.2857 130.9 26.502 129.804 26.502C128.557 26.502 127.526 26.2256 126.706 25.6704C125.887 25.1177 125.276 24.4135 124.875 23.5652C124.471 22.7144 124.27 21.8444 124.27 20.948L124.272 20.9552ZM139.893 24.3919C139.792 24.7187 139.607 25.072 139.336 25.4493C139.064 25.8266 138.771 26.1102 138.458 26.3001C137.689 26.1246 137.076 25.8218 136.617 25.3941C136.158 24.9663 135.815 24.4592 135.589 23.8728C135.363 23.2864 135.231 22.6615 135.192 21.9934V13.4378C135.192 12.2049 134.916 11.3229 134.361 10.7942C133.806 10.2655 133.039 10.0011 132.056 10.0011C131.073 10.0011 130.095 10.1453 129.081 10.4361C128.067 10.7269 127.062 11.073 126.067 11.4744C125.764 11.1715 125.51 10.7606 125.303 10.2367C125.096 9.71516 124.978 9.21288 124.954 8.73463C125.647 8.43182 126.43 8.14823 127.305 7.88388C128.18 7.61952 129.086 7.40563 130.025 7.2422C130.963 7.07878 131.861 6.99707 132.717 6.99707C133.964 6.99707 135.046 7.22778 135.966 7.68681C136.884 8.14583 137.593 8.84278 138.091 9.77284C138.588 10.7053 138.836 11.8877 138.836 13.3249V21.0682C138.836 21.7988 138.901 22.4356 139.035 22.9764C139.167 23.5171 139.453 23.9905 139.896 24.3919H139.893Z" fill="white"/>
<path d="M154.625 14.476C154.664 13.6709 154.589 12.9091 154.409 12.1905C154.226 11.4719 153.88 10.8879 153.371 10.4337C152.861 9.9795 152.133 9.75359 151.189 9.75359C149.968 9.75359 149.004 10.3448 148.3 11.5296C147.593 12.7144 147.243 14.476 147.243 16.8192C147.243 19.1624 147.63 20.7894 148.403 21.854C149.177 22.9187 150.251 23.4498 151.624 23.4498C152.506 23.4498 153.332 23.2479 154.106 22.8442C154.88 22.4404 155.601 21.9934 156.269 21.5031C156.596 21.705 156.918 22.0223 157.233 22.4572C157.548 22.8922 157.754 23.3176 157.855 23.7334C157 24.5649 155.99 25.2354 154.832 25.7449C153.674 26.2544 152.422 26.5091 151.073 26.5091C149.725 26.5091 148.567 26.2472 147.598 25.7257C146.627 25.2042 145.834 24.4928 145.219 23.5916C144.601 22.6904 144.15 21.6594 143.859 20.4938C143.568 19.3282 143.424 18.1049 143.424 16.8192C143.424 14.5024 143.801 12.6135 144.558 11.1523C145.313 9.6911 146.293 8.61925 147.495 7.93192C148.697 7.24699 149.961 6.90332 151.282 6.90332C152.441 6.90332 153.445 7.07876 154.296 7.43204C155.147 7.78532 155.851 8.23713 156.411 8.79229C156.971 9.34744 157.387 9.95306 157.658 10.614C157.93 11.2749 158.065 11.9213 158.065 12.551C158.065 13.1806 157.92 13.6685 157.63 14.053C157.339 14.4376 156.856 14.6298 156.176 14.6298C155.885 14.6298 155.62 14.6178 155.382 14.5914C155.142 14.5673 154.892 14.5289 154.628 14.4784L154.625 14.476Z" fill="white"/>
<path d="M163.522 17.8569V15.1557H172.928V14.6654C172.928 13.7594 172.799 12.9254 172.541 12.1636C172.282 11.4018 171.868 10.7938 171.294 10.3419C170.722 9.88772 169.968 9.66182 169.037 9.66182C167.704 9.66182 166.701 10.2194 166.033 11.3345C165.365 12.4496 165.031 13.9685 165.031 15.8959V17.0302C165.031 18.2511 165.161 19.3494 165.418 20.3251C165.675 21.3008 166.127 22.0699 166.769 22.6298C167.41 23.1898 168.316 23.471 169.489 23.471C170.458 23.471 171.383 23.3292 172.265 23.0456C173.147 22.762 173.991 22.4135 174.796 21.9978C175.111 22.2886 175.372 22.6611 175.579 23.1225C175.786 23.5815 175.916 23.9997 175.966 24.3794C175.072 25.0211 174.005 25.5378 172.765 25.9271C171.525 26.3164 170.249 26.5135 168.939 26.5135C167.466 26.5135 166.23 26.2467 165.238 25.7108C164.243 25.1749 163.45 24.4515 162.859 23.5383C162.267 22.625 161.844 21.5844 161.592 20.4116C161.34 19.2412 161.215 18.0132 161.215 16.7274C161.215 14.8505 161.508 13.173 162.092 11.6926C162.678 10.2122 163.548 9.04418 164.709 8.18862C165.868 7.33306 167.309 6.90527 169.035 6.90527C170.66 6.90527 172.025 7.26817 173.133 7.99155C174.241 8.71493 175.077 9.68585 175.644 10.8995C176.211 12.1156 176.495 13.471 176.495 14.9706C176.495 15.5498 176.476 16.0497 176.437 16.4727C176.399 16.8956 176.329 17.3571 176.23 17.8618H163.52L163.522 17.8569Z" fill="white"/>
<path d="M0.550781 47.5035V37.5107H7.04679V38.6667H1.8942V41.5074H4.12203C4.77812 41.5074 5.3501 41.5795 5.83556 41.7213C6.32101 41.8631 6.72236 42.0697 7.042 42.3341C7.36163 42.6009 7.59714 42.9181 7.74854 43.2834C7.89995 43.6487 7.97686 44.0572 7.97686 44.5042C7.97686 44.9512 7.89995 45.3574 7.74854 45.7251C7.59714 46.0904 7.36163 46.4076 7.042 46.6744C6.72236 46.9411 6.32101 47.1454 5.83556 47.2872C5.3501 47.429 4.77812 47.5011 4.12203 47.5011H0.553187L0.550781 47.5035ZM1.89179 46.3331H4.04753C4.52337 46.3331 4.92472 46.2923 5.25397 46.213C5.58322 46.1313 5.84756 46.0135 6.05425 45.8573C6.25852 45.7011 6.40513 45.5064 6.49645 45.2781C6.58778 45.0498 6.63344 44.7926 6.63344 44.5066C6.63344 44.2207 6.58778 43.9635 6.49645 43.7352C6.40513 43.5069 6.25852 43.3146 6.05425 43.156C5.84997 42.9998 5.58322 42.8796 5.25397 42.7979C4.92472 42.7162 4.52337 42.6778 4.04753 42.6778H1.89179V46.3331Z" fill="white"/>
<path d="M9.75684 47.504V39.9385H11.0137V42.7936H12.5422C13.0181 42.7936 13.429 42.8488 13.7775 42.957C14.1236 43.0675 14.412 43.2213 14.6403 43.4208C14.8686 43.6203 15.0392 43.8678 15.1546 44.1634C15.2675 44.459 15.3252 44.7907 15.3252 45.1632C15.3252 45.5357 15.2675 45.8505 15.1546 46.1413C15.0392 46.4321 14.8686 46.6772 14.6403 46.8767C14.412 47.0762 14.1236 47.2324 13.7775 47.3405C13.429 47.4511 13.0181 47.504 12.5422 47.504H9.75924H9.75684ZM11.0137 46.3912H12.4701C13.0589 46.3912 13.4747 46.2855 13.7126 46.0764C13.9505 45.8673 14.0683 45.5573 14.0683 45.1487C14.0683 44.7402 13.9481 44.4302 13.7126 44.2211C13.4747 44.012 13.0613 43.9063 12.4701 43.9063H11.0137V46.3912ZM16.4956 47.504V39.9385H17.7525V47.504H16.4956Z" fill="white"/>
<path d="M21.7642 47.504V41.0512H19.1807V39.9385H25.6046V41.0512H23.0211V47.504H21.7642Z" fill="white"/>
<path d="M27.0322 47.504V39.9385H28.2891V42.7936H30.1012C30.577 42.7936 30.988 42.8488 31.3365 42.957C31.6849 43.0675 31.9709 43.2213 32.1992 43.4208C32.4276 43.6203 32.5982 43.8678 32.7135 44.1634C32.8265 44.459 32.8842 44.7907 32.8842 45.1632C32.8842 45.5357 32.8265 45.8505 32.7135 46.1413C32.5982 46.4321 32.4276 46.6772 32.1992 46.8767C31.9709 47.0762 31.6825 47.2324 31.3365 47.3405C30.988 47.4511 30.577 47.504 30.1012 47.504H27.0322ZM28.2891 46.3912H30.0315C30.6203 46.3912 31.0361 46.2855 31.274 46.0764C31.5119 45.8673 31.6297 45.5573 31.6297 45.1487C31.6297 44.7402 31.5095 44.4302 31.274 44.2211C31.0361 44.012 30.6227 43.9063 30.0315 43.9063H28.2891V46.3912Z" fill="white"/>
<path d="M38.0942 47.504V39.9385H39.4352L42.1341 44.6489L44.833 39.9385H46.0899V47.504H44.833V42.0077L42.5907 45.8625H41.5909L39.3487 42.0077V47.504H38.0918H38.0942Z" fill="white"/>
<path d="M50.5288 47.6484C50.1203 47.6484 49.7526 47.5883 49.4305 47.4705C49.1061 47.3528 48.8345 47.1869 48.6158 46.9779C48.3971 46.7688 48.2313 46.5212 48.1159 46.2353C48.003 45.9493 47.9453 45.6368 47.9453 45.2932C47.9453 44.9231 48.003 44.601 48.1159 44.3295C48.2313 44.0579 48.3947 43.8368 48.6086 43.6662C48.8225 43.4955 49.0917 43.3682 49.4161 43.2889C49.7405 43.2071 50.1058 43.1687 50.5144 43.1687H52.9705V42.6544C52.9705 42.33 52.9345 42.0608 52.8624 41.8397C52.7903 41.621 52.6822 41.4456 52.5331 41.311C52.3865 41.1788 52.2015 41.0827 51.9828 41.025C51.7641 40.9673 51.5118 40.9385 51.2258 40.9385C50.959 40.9385 50.7283 40.9673 50.5336 41.025C50.339 41.0827 50.1779 41.1548 50.0482 41.2461C49.9184 41.3374 49.8223 41.4407 49.755 41.5609C49.6877 41.6811 49.6444 41.806 49.6252 41.9382H48.3683C48.3875 41.633 48.4716 41.3518 48.6182 41.0899C48.7648 40.8279 48.9667 40.602 49.2191 40.4121C49.4714 40.2223 49.7742 40.0709 50.1251 39.9627C50.476 39.8546 50.8677 39.7993 51.2955 39.7993C51.7232 39.7993 52.1462 39.8498 52.5091 39.9483C52.872 40.0493 53.1772 40.2079 53.4296 40.4266C53.6819 40.6453 53.8766 40.9264 54.016 41.2701C54.1529 41.6138 54.2226 42.0271 54.2226 42.5126V45.5816C54.2226 45.9805 54.2226 46.3314 54.2299 46.6318C54.2347 46.9322 54.2563 47.2254 54.2947 47.509H53.1965C53.1676 47.2903 53.1484 47.0836 53.1388 46.8889C53.1292 46.6943 53.1244 46.4732 53.1244 46.2256C53.0282 46.4251 52.8984 46.6102 52.7326 46.7832C52.5668 46.9538 52.3745 47.1052 52.1534 47.2326C51.9323 47.36 51.6872 47.4633 51.4108 47.5402C51.1345 47.6171 50.8388 47.6532 50.5264 47.6532L50.5288 47.6484ZM50.8004 46.5068C51.096 46.5068 51.3748 46.466 51.6367 46.3843C51.8987 46.3025 52.1294 46.1848 52.3289 46.0286C52.5283 45.8724 52.6846 45.6777 52.7999 45.4422C52.9153 45.2091 52.9705 44.9447 52.9705 44.6491V44.1348H50.7283C50.2621 44.1348 49.8944 44.2285 49.63 44.4136C49.3656 44.5986 49.2311 44.8918 49.2311 45.2908C49.2311 45.6441 49.356 45.9324 49.6084 46.1608C49.8607 46.3891 50.2573 46.5044 50.8004 46.5044V46.5068Z" fill="white"/>
<path d="M56.4389 47.504V39.9385H57.78L60.4788 44.6489L63.1777 39.9385H64.4346V47.504H63.1777V42.0077L60.9354 45.8625H59.9357L57.6934 42.0077V47.504H56.4365H56.4389Z" fill="white"/>
<path d="M69.8577 47.6479C69.3723 47.6479 68.9109 47.5685 68.4735 47.4123C68.0361 47.2561 67.6491 47.0182 67.3175 46.6986C66.9834 46.3789 66.7167 45.9776 66.5172 45.4921C66.3177 45.0067 66.2168 44.4395 66.2168 43.793V43.507C66.2168 42.8894 66.3177 42.3487 66.5172 41.8872C66.7167 41.4258 66.9834 41.0413 67.3175 40.7313C67.6515 40.4212 68.0361 40.1881 68.4735 40.0319C68.9109 39.8757 69.3723 39.7964 69.8577 39.7964C70.3432 39.7964 70.8046 39.8757 71.242 40.0319C71.6794 40.1881 72.0663 40.4212 72.398 40.7313C72.732 41.0413 72.9964 41.4258 73.1983 41.8872C73.3977 42.3487 73.4987 42.8894 73.4987 43.507V43.793C73.4987 44.4395 73.3977 45.0067 73.1983 45.4921C72.9988 45.9776 72.732 46.3789 72.398 46.6986C72.0639 47.0182 71.6794 47.2561 71.242 47.4123C70.8046 47.5685 70.3432 47.6479 69.8577 47.6479ZM69.8577 46.5063C70.1437 46.5063 70.4297 46.4558 70.7133 46.3573C70.9969 46.2588 71.2516 46.1001 71.4703 45.8863C71.689 45.6724 71.8669 45.3936 72.0063 45.0523C72.1432 44.7087 72.2129 44.2905 72.2129 43.7954V43.5094C72.2129 43.0528 72.1432 42.6635 72.0063 42.339C71.8693 42.0146 71.689 41.7502 71.4703 41.5388C71.2516 41.3297 70.9993 41.1783 70.7133 41.0821C70.4273 40.986 70.1413 40.9403 69.8577 40.9403C69.5741 40.9403 69.2858 40.9884 69.0022 41.0821C68.7162 41.1783 68.4638 41.3297 68.2452 41.5388C68.0265 41.7478 67.8486 42.0146 67.7092 42.339C67.5722 42.6635 67.5025 43.0528 67.5025 43.5094V43.7954C67.5025 44.2905 67.5722 44.7087 67.7092 45.0523C67.8462 45.396 68.0265 45.6724 68.2452 45.8863C68.4638 46.1001 68.7162 46.2564 69.0022 46.3573C69.2882 46.4582 69.5741 46.5063 69.8577 46.5063Z" fill="white"/>
<path d="M75.2822 47.5037V39.9382H76.5391V45.6484L80.4516 39.9382H81.7086V47.5037H80.4516V41.7935L76.5391 47.5037H75.2822ZM78.4954 39.0106C78.1253 39.0106 77.8033 38.9697 77.5317 38.888C77.2601 38.8063 77.039 38.6885 76.8684 38.5323C76.6978 38.3761 76.568 38.1814 76.4839 37.9459C76.3973 37.7128 76.3565 37.4484 76.3565 37.1528H77.5846C77.5846 37.4773 77.6615 37.72 77.8129 37.881C77.9643 38.042 78.1926 38.1238 78.4978 38.1238C78.803 38.1238 79.0481 38.042 79.2044 37.881C79.3606 37.72 79.4399 37.4773 79.4399 37.1528H80.6391C80.6391 37.4484 80.5958 37.7128 80.5093 37.9459C80.4228 38.179 80.2954 38.3737 80.1248 38.5323C79.9542 38.6885 79.7331 38.8087 79.4615 38.888C79.1899 38.9697 78.8703 39.0106 78.4978 39.0106H78.4954Z" fill="white"/>
<path d="M87.5605 47.504V39.9385H88.8174V45.6486L92.73 39.9385H93.9869V47.504H92.73V41.7938L88.8174 47.504H87.5605Z" fill="white"/>
<path d="M102.977 47.648C102.482 47.648 102.016 47.5518 101.578 47.362C101.141 47.1721 100.761 46.8933 100.444 46.528C100.124 46.1627 99.872 45.7109 99.687 45.1798C99.5019 44.6463 99.4082 44.0431 99.4082 43.3678V43.0818C99.4082 42.2262 99.4707 41.462 99.5933 40.7915C99.7158 40.1209 99.9297 39.549 100.228 39.0779C100.528 38.6069 100.922 38.2392 101.413 37.9724C101.903 37.7057 102.518 37.5543 103.261 37.5158C103.566 37.4966 103.847 37.4846 104.104 37.4798C104.361 37.475 104.604 37.4605 104.832 37.4365C105.061 37.4125 105.27 37.3812 105.46 37.3428C105.649 37.3043 105.823 37.2418 105.974 37.1577V38.3714C105.897 38.4098 105.791 38.4459 105.652 38.4795C105.515 38.5132 105.342 38.542 105.138 38.566C104.933 38.5901 104.693 38.6117 104.417 38.6309C104.14 38.6501 103.825 38.6646 103.475 38.6742C103.018 38.6838 102.617 38.7415 102.268 38.8448C101.92 38.9506 101.626 39.1164 101.384 39.3447C101.141 39.573 100.951 39.871 100.812 40.2363C100.675 40.6016 100.586 41.0534 100.547 41.5845C100.663 41.3274 100.809 41.0991 100.99 40.8996C101.17 40.7001 101.374 40.5295 101.602 40.3853C101.831 40.2435 102.085 40.133 102.367 40.0561C102.648 39.9792 102.946 39.9407 103.258 39.9407C103.744 39.9407 104.186 40.0248 104.585 40.1906C104.984 40.3565 105.33 40.592 105.621 40.8972C105.911 41.2024 106.137 41.5749 106.298 42.0171C106.459 42.4593 106.541 42.9568 106.541 43.5095V43.7955C106.541 44.3771 106.45 44.9034 106.27 45.3793C106.089 45.8551 105.842 46.2613 105.527 46.6001C105.212 46.939 104.837 47.1986 104.4 47.3788C103.962 47.559 103.487 47.6504 102.972 47.6504L102.977 47.648ZM102.977 46.5064C103.311 46.5064 103.616 46.4463 103.897 46.3286C104.179 46.2108 104.419 46.0354 104.618 45.8071C104.818 45.5788 104.974 45.2952 105.09 44.9587C105.202 44.6199 105.26 44.2329 105.26 43.7955V43.5095C105.26 43.1394 105.202 42.8054 105.09 42.5098C104.974 42.2142 104.818 41.9594 104.618 41.7456C104.419 41.5317 104.179 41.3682 103.897 41.2529C103.616 41.1399 103.309 41.0822 102.977 41.0822C102.645 41.0822 102.338 41.1399 102.057 41.2529C101.775 41.3682 101.535 41.5317 101.336 41.7456C101.136 41.9594 100.98 42.2142 100.865 42.5098C100.749 42.8054 100.694 43.137 100.694 43.5095V43.7955C100.694 44.2137 100.754 44.5934 100.872 44.9299C100.99 45.2687 101.155 45.5523 101.364 45.7854C101.574 46.0186 101.816 46.1964 102.093 46.3214C102.369 46.4439 102.665 46.5064 102.977 46.5064Z" fill="white"/>
<path d="M108.329 47.504V39.9385H109.586V42.7936H111.114C111.59 42.7936 112.001 42.8488 112.35 42.957C112.696 43.0675 112.984 43.2213 113.213 43.4208C113.441 43.6203 113.611 43.8678 113.727 44.1634C113.84 44.459 113.897 44.7907 113.897 45.1632C113.897 45.5357 113.84 45.8505 113.727 46.1413C113.611 46.4321 113.441 46.6772 113.213 46.8767C112.984 47.0762 112.696 47.2324 112.35 47.3405C112.001 47.4511 111.59 47.504 111.114 47.504H108.332H108.329ZM109.586 46.3912H111.042C111.631 46.3912 112.047 46.2855 112.285 46.0764C112.523 45.8673 112.641 45.5573 112.641 45.1487C112.641 44.7402 112.52 44.4302 112.285 44.2211C112.047 44.012 111.634 43.9063 111.042 43.9063H109.586V46.3912ZM115.068 47.504V39.9385H116.325V47.504H115.068Z" fill="white"/>
<path d="M120.336 47.504V41.0512H117.753V39.9385H124.177V41.0512H121.593V47.504H120.336Z" fill="white"/>
<path d="M125.604 47.504V39.9385H126.861V42.7936H128.673C129.149 42.7936 129.56 42.8488 129.909 42.957C130.257 43.0675 130.543 43.2213 130.772 43.4208C131 43.6203 131.17 43.8678 131.286 44.1634C131.399 44.459 131.456 44.7907 131.456 45.1632C131.456 45.5357 131.399 45.8505 131.286 46.1413C131.17 46.4321 131 46.6772 130.772 46.8767C130.543 47.0762 130.255 47.2324 129.909 47.3405C129.56 47.4511 129.149 47.504 128.673 47.504H125.604ZM126.861 46.3912H128.604C129.193 46.3912 129.608 46.2855 129.846 46.0764C130.084 45.8673 130.202 45.5573 130.202 45.1487C130.202 44.7402 130.082 44.4302 129.846 44.2211C129.608 44.012 129.195 43.9063 128.604 43.9063H126.861V46.3912Z" fill="white"/>
<path d="M139.594 47.6479C139.108 47.6479 138.656 47.5685 138.238 47.4123C137.82 47.2561 137.457 47.0182 137.154 46.6986C136.849 46.3789 136.609 45.9776 136.433 45.4921C136.258 45.0067 136.169 44.4395 136.169 43.793V43.507C136.169 42.8894 136.265 42.3487 136.455 41.8872C136.645 41.4258 136.897 41.0413 137.212 40.7313C137.527 40.4212 137.89 40.1881 138.303 40.0319C138.716 39.8757 139.147 39.7964 139.596 39.7964C140.045 39.7964 140.444 39.8589 140.802 39.9814C141.158 40.104 141.468 40.277 141.73 40.4957C141.992 40.7144 142.206 40.9716 142.372 41.2672C142.538 41.5628 142.66 41.88 142.735 42.2237H141.449C141.372 42.0434 141.285 41.8728 141.185 41.7166C141.084 41.5604 140.961 41.4234 140.814 41.3104C140.668 41.1951 140.495 41.1062 140.3 41.0389C140.106 40.9716 139.87 40.9379 139.594 40.9379C139.317 40.9379 139.05 40.9884 138.793 41.0869C138.536 41.1879 138.308 41.3393 138.108 41.5436C137.909 41.7478 137.75 42.0122 137.63 42.3366C137.51 42.6611 137.452 43.0504 137.452 43.507V43.793C137.452 44.2785 137.512 44.6942 137.63 45.0427C137.748 45.3912 137.909 45.67 138.108 45.8839C138.308 46.0977 138.536 46.254 138.793 46.3549C139.05 46.4558 139.317 46.5039 139.594 46.5039C140.06 46.5039 140.452 46.3885 140.771 46.1602C141.091 45.9319 141.317 45.6171 141.449 45.2181H142.735C142.648 45.5883 142.511 45.9247 142.321 46.2251C142.131 46.5255 141.901 46.7803 141.629 46.9894C141.358 47.1984 141.05 47.3595 140.709 47.4748C140.365 47.5878 139.995 47.6454 139.596 47.6454L139.594 47.6479Z" fill="white"/>
<path d="M147.589 47.6479C147.104 47.6479 146.642 47.5685 146.205 47.4123C145.768 47.2561 145.381 47.0182 145.049 46.6986C144.715 46.3789 144.448 45.9776 144.249 45.4921C144.049 45.0067 143.948 44.4395 143.948 43.793V43.507C143.948 42.8894 144.049 42.3487 144.249 41.8872C144.448 41.4258 144.715 41.0413 145.049 40.7313C145.383 40.4212 145.768 40.1881 146.205 40.0319C146.642 39.8757 147.104 39.7964 147.589 39.7964C148.075 39.7964 148.536 39.8757 148.973 40.0319C149.411 40.1881 149.798 40.4212 150.129 40.7313C150.464 41.0413 150.728 41.4258 150.93 41.8872C151.129 42.3487 151.23 42.8894 151.23 43.507V43.793C151.23 44.4395 151.129 45.0067 150.93 45.4921C150.73 45.9776 150.464 46.3789 150.129 46.6986C149.795 47.0182 149.411 47.2561 148.973 47.4123C148.536 47.5685 148.075 47.6479 147.589 47.6479ZM147.589 46.5063C147.875 46.5063 148.161 46.4558 148.445 46.3573C148.728 46.2588 148.983 46.1001 149.202 45.8863C149.42 45.6724 149.598 45.3936 149.738 45.0523C149.875 44.7087 149.944 44.2905 149.944 43.7954V43.5094C149.944 43.0528 149.875 42.6635 149.738 42.339C149.601 42.0146 149.42 41.7502 149.202 41.5388C148.983 41.3297 148.731 41.1783 148.445 41.0821C148.159 40.986 147.873 40.9403 147.589 40.9403C147.306 40.9403 147.017 40.9884 146.734 41.0821C146.448 41.1783 146.195 41.3297 145.977 41.5388C145.758 41.7478 145.58 42.0146 145.441 42.339C145.304 42.6635 145.234 43.0528 145.234 43.5094V43.7954C145.234 44.2905 145.304 44.7087 145.441 45.0523C145.578 45.396 145.758 45.6724 145.977 45.8863C146.195 46.1001 146.448 46.2564 146.734 46.3573C147.02 46.4582 147.306 46.5063 147.589 46.5063Z" fill="white"/>
<path d="M156.155 47.648C155.66 47.648 155.193 47.5518 154.756 47.362C154.319 47.1721 153.939 46.8933 153.622 46.528C153.304 46.1627 153.05 45.7109 152.865 45.1798C152.68 44.6463 152.586 44.0431 152.586 43.3678V43.0818C152.586 42.2262 152.648 41.462 152.771 40.7915C152.894 40.1209 153.107 39.549 153.405 39.0779C153.706 38.6069 154.1 38.2392 154.59 37.9724C155.081 37.7057 155.696 37.5543 156.438 37.5158C156.744 37.4966 157.025 37.4846 157.282 37.4798C157.539 37.475 157.782 37.4605 158.01 37.4365C158.238 37.4125 158.447 37.3812 158.637 37.3428C158.827 37.3043 159 37.2418 159.152 37.1577V38.3714C159.075 38.4098 158.969 38.4459 158.83 38.4795C158.693 38.5132 158.52 38.542 158.315 38.566C158.111 38.5901 157.871 38.6117 157.594 38.6309C157.318 38.6501 157.003 38.6646 156.652 38.6742C156.196 38.6838 155.794 38.7415 155.446 38.8448C155.097 38.9506 154.804 39.1164 154.561 39.3447C154.319 39.573 154.129 39.871 153.989 40.2363C153.852 40.6016 153.764 41.0534 153.725 41.5845C153.84 41.3274 153.987 41.0991 154.167 40.8996C154.348 40.7001 154.552 40.5295 154.78 40.3853C155.008 40.2435 155.263 40.133 155.544 40.0561C155.826 39.9792 156.124 39.9407 156.436 39.9407C156.921 39.9407 157.364 40.0248 157.763 40.1906C158.162 40.3565 158.508 40.592 158.798 40.8972C159.089 41.2024 159.315 41.5749 159.476 42.0171C159.637 42.4593 159.719 42.9568 159.719 43.5095V43.7955C159.719 44.3771 159.627 44.9034 159.447 45.3793C159.267 45.8551 159.019 46.2613 158.705 46.6001C158.39 46.939 158.015 47.1986 157.578 47.3788C157.14 47.559 156.664 47.6504 156.15 47.6504L156.155 47.648ZM156.155 46.5064C156.489 46.5064 156.794 46.4463 157.075 46.3286C157.356 46.2108 157.597 46.0354 157.796 45.8071C157.996 45.5788 158.152 45.2952 158.267 44.9587C158.38 44.6199 158.438 44.2329 158.438 43.7955V43.5095C158.438 43.1394 158.38 42.8054 158.267 42.5098C158.152 42.2142 157.996 41.9594 157.796 41.7456C157.597 41.5317 157.356 41.3682 157.075 41.2529C156.794 41.1399 156.486 41.0822 156.155 41.0822C155.823 41.0822 155.516 41.1399 155.234 41.2529C154.953 41.3682 154.713 41.5317 154.513 41.7456C154.314 41.9594 154.158 42.2142 154.042 42.5098C153.927 42.8054 153.872 43.137 153.872 43.5095V43.7955C153.872 44.2137 153.932 44.5934 154.05 44.9299C154.167 45.2687 154.333 45.5523 154.542 45.7854C154.751 46.0186 154.994 46.1964 155.27 46.3214C155.547 46.4439 155.842 46.5064 156.155 46.5064Z" fill="white"/>
<path d="M164.647 47.6479C164.161 47.6479 163.7 47.5685 163.262 47.4123C162.825 47.2561 162.438 47.0182 162.107 46.6986C161.772 46.3789 161.506 45.9776 161.306 45.4921C161.107 45.0067 161.006 44.4395 161.006 43.793V43.507C161.006 42.8894 161.107 42.3487 161.306 41.8872C161.506 41.4258 161.772 41.0413 162.107 40.7313C162.441 40.4212 162.825 40.1881 163.262 40.0319C163.7 39.8757 164.161 39.7964 164.647 39.7964C165.132 39.7964 165.594 39.8757 166.031 40.0319C166.468 40.1881 166.855 40.4212 167.187 40.7313C167.521 41.0413 167.785 41.4258 167.987 41.8872C168.187 42.3487 168.288 42.8894 168.288 43.507V43.793C168.288 44.4395 168.187 45.0067 167.987 45.4921C167.788 45.9776 167.521 46.3789 167.187 46.6986C166.853 47.0182 166.468 47.2561 166.031 47.4123C165.594 47.5685 165.132 47.6479 164.647 47.6479ZM164.647 46.5063C164.933 46.5063 165.219 46.4558 165.502 46.3573C165.786 46.2588 166.041 46.1001 166.259 45.8863C166.478 45.6724 166.656 45.3936 166.795 45.0523C166.932 44.7087 167.002 44.2905 167.002 43.7954V43.5094C167.002 43.0528 166.932 42.6635 166.795 42.339C166.658 42.0146 166.478 41.7502 166.259 41.5388C166.041 41.3297 165.788 41.1783 165.502 41.0821C165.216 40.986 164.93 40.9403 164.647 40.9403C164.363 40.9403 164.075 40.9884 163.791 41.0821C163.505 41.1783 163.253 41.3297 163.034 41.5388C162.816 41.7478 162.638 42.0146 162.498 42.339C162.361 42.6635 162.292 43.0528 162.292 43.5094V43.7954C162.292 44.2905 162.361 44.7087 162.498 45.0523C162.635 45.396 162.816 45.6724 163.034 45.8863C163.253 46.1001 163.505 46.2564 163.791 46.3573C164.077 46.4582 164.363 46.5063 164.647 46.5063Z" fill="white"/>
<path d="M170.072 47.5037V39.9382H171.329V45.6484L175.242 39.9382H176.499V47.5037H175.242V41.7935L171.329 47.5037H170.072ZM173.285 39.0106C172.915 39.0106 172.593 38.9697 172.322 38.888C172.05 38.8063 171.829 38.6885 171.658 38.5323C171.488 38.3761 171.358 38.1814 171.274 37.9459C171.187 37.7128 171.147 37.4484 171.147 37.1528H172.375C172.375 37.4773 172.452 37.72 172.603 37.881C172.754 38.042 172.983 38.1238 173.288 38.1238C173.593 38.1238 173.838 38.042 173.994 37.881C174.151 37.72 174.23 37.4773 174.23 37.1528H175.429C175.429 37.4484 175.386 37.7128 175.299 37.9459C175.213 38.179 175.085 38.3737 174.915 38.5323C174.744 38.6885 174.523 38.8087 174.252 38.888C173.98 38.9697 173.66 39.0106 173.288 39.0106H173.285Z" fill="white"/>
</svg>
