<svg width="144" height="145" viewBox="0 0 144 145" fill="none" xmlns="http://www.w3.org/2000/svg">
<g clip-path="url(#clip0_68_2738)">
<path d="M135.605 0.474609H96.2833C91.6606 0.483609 87.8999 4.26899 87.8999 8.91267V13.794C87.8999 18.4184 91.6555 22.1477 96.3031 22.0247H102.883L89.5663 35.3882C66.6413 21.4781 36.6814 24.7016 17.2676 44.0692C-5.25845 66.5415 -6.05195 103.35 16.6946 126.666C27.4759 137.718 42.3694 144.396 58.9818 144.396C89.8445 144.396 114.602 121.057 117.591 91.6166C118.885 78.8667 115.958 65.9826 109.334 55.1134L113.999 50.4922C114.941 49.5595 114.948 48.0397 114.015 47.098C113.083 46.1566 111.563 46.1494 110.621 47.0821L104.585 53.0614C103.774 53.8654 103.642 55.1302 104.269 56.0848C118.363 77.5278 115.265 106.164 96.9037 124.176C75.5885 145.085 40.9981 144.706 20.1304 123.315C-0.402672 102.267 -0.166273 68.2416 20.6572 47.4676C38.7094 29.4581 67.2821 26.507 88.5974 40.4506C89.5492 41.0734 90.808 40.9423 91.6111 40.1362L110.363 21.3188C111.87 19.8065 110.791 17.2247 108.663 17.2247C108.663 17.2247 96.2128 17.225 96.1864 17.2259C94.2562 17.2922 92.6998 15.7277 92.6998 13.794V8.91297C92.6998 6.91078 94.3117 5.27849 96.2881 5.27489H135.593C137.539 5.25779 139.2 6.81328 139.2 8.83677V48.439C139.207 50.4187 137.608 52.0249 135.628 52.0249H130.998C129.04 52.0249 127.456 50.461 127.499 48.5209C127.499 48.5029 127.5 36.059 127.5 36.059C127.5 34.7336 126.425 33.659 125.1 33.659C123.774 33.659 122.7 34.7336 122.7 36.059V48.4423C122.612 53.0566 126.345 56.8246 130.998 56.8246H135.628C140.299 56.8246 144.018 53.0233 144 48.4291V8.83647C143.999 4.20179 140.248 0.474609 135.605 0.474609Z" fill="#00BC87"/>
<path d="M42.5243 53.1327C43.7111 52.5427 44.1947 51.1018 43.6046 49.915C43.0142 48.7282 41.5736 48.2449 40.3868 48.8347C26.5239 55.7292 17.3994 69.9357 17.3994 85.9244C17.3994 108.752 35.9714 127.324 58.7992 127.324C81.627 127.324 100.199 108.752 100.199 85.9244C100.199 62.6184 80.8524 43.78 57.421 44.5477C57.0067 44.5516 56.5298 44.6851 56.1254 44.9581C51.8537 47.8381 47.927 52.5799 48.6479 57.6594C49.5461 63.987 57.2209 66.9276 62.5519 61.8648C63.5131 60.9522 63.5524 59.433 62.6395 58.4718C61.7269 57.5106 60.2077 57.4716 59.2465 58.3842C55.157 62.2674 48.8783 56.4348 58.2706 49.3336C78.8302 49.0354 95.3991 65.7042 95.3991 85.9244C95.3991 106.106 78.9805 122.524 58.7992 122.524C38.618 122.524 22.1994 106.106 22.1994 85.9244C22.1994 71.9328 29.9877 59.3676 42.5243 53.1327Z" fill="#00BC87"/>
<path d="M51.2994 86.5244C52.6248 86.5244 53.6994 85.4498 53.6994 84.1245V79.6245C53.6994 78.2991 52.6248 77.2245 51.2994 77.2245C49.974 77.2245 48.8994 78.2991 48.8994 79.6245V84.1245C48.8994 85.4501 49.974 86.5244 51.2994 86.5244Z" fill="#00BC87"/>
<path d="M68.6994 84.1245V79.6245C68.6994 78.2991 67.6248 77.2245 66.2994 77.2245C64.974 77.2245 63.8994 78.2991 63.8994 79.6245V84.1245C63.8994 85.4498 64.974 86.5244 66.2994 86.5244C67.6248 86.5244 68.6994 85.4501 68.6994 84.1245Z" fill="#00BC87"/>
<path d="M49.042 99.8825C54.4224 105.263 63.1773 105.263 68.5581 99.8825C69.4956 98.9454 69.4956 97.4259 68.5581 96.4887C67.6209 95.5515 66.1014 95.5515 65.1642 96.4887C61.6551 99.9977 55.9455 99.9977 52.4361 96.4887C51.4989 95.5515 49.9794 95.5515 49.0423 96.4887C48.1045 97.4259 48.1045 98.9454 49.042 99.8825Z" fill="#00BC87"/>
</g>
<defs>
<clipPath id="clip0_68_2738">
<rect width="144" height="144" fill="white" transform="translate(0 0.435547)"/>
</clipPath>
</defs>
</svg>
