<svg width="200" height="60" viewBox="0 0 200 60" fill="none" xmlns="http://www.w3.org/2000/svg">
<circle cx="30.5924" cy="30.014" r="29.986" fill="#FF56AD"/>
<g clip-path="url(#clip0_58_934)">
<path d="M42.3929 19.4573L17.6272 28.4595C16.8262 28.7518 16.871 29.8237 17.7018 30.0511L23.9952 31.7866L26.3435 38.7377C26.5872 39.4616 27.5773 39.6844 28.1444 39.1414L31.3981 36.0417L37.7811 40.4129C38.5622 40.9465 39.6766 40.5521 39.8756 39.6658L44.1044 20.8077C44.3133 19.8842 43.3382 19.1139 42.3929 19.4573ZM39.2885 23.6429L27.7862 33.1323C27.6718 33.2251 27.5972 33.3596 27.5822 33.4988L27.1395 37.1693C27.1245 37.29 26.9454 37.3039 26.9056 37.1879L25.0798 31.7123C24.9952 31.4618 25.1047 31.188 25.3435 31.0534L38.9303 23.1928C39.2437 23.0118 39.5621 23.4109 39.2885 23.6382V23.6429Z" fill="white"/>
</g>
<circle cx="169.211" cy="30.014" r="29.986" fill="#FF56AD"/>
<g clip-path="url(#clip1_58_934)">
<path d="M171.636 32.4391C169.66 34.4781 169.516 37.02 169.345 42.5888C174.537 42.5888 178.121 42.5708 179.971 40.7744C181.767 38.9241 181.785 35.1697 181.785 30.1487C176.216 30.3284 173.675 30.4631 171.636 32.4391ZM156.636 30.1487C156.636 35.1697 156.654 38.9241 158.45 40.7744C160.3 42.5708 163.884 42.5888 169.076 42.5888C168.896 37.02 168.761 34.4781 166.785 32.4391C164.746 30.4631 162.205 30.3194 156.636 30.1487ZM169.076 17.4392C163.893 17.4392 160.3 17.4572 158.45 19.2536C156.654 21.1039 156.636 24.8584 156.636 29.8793C162.205 29.6996 164.746 29.5649 166.785 27.5889C168.761 25.55 168.905 23.0081 169.076 17.4392ZM171.636 27.5889C169.66 25.55 169.516 23.0081 169.345 17.4392C174.537 17.4392 178.121 17.4572 179.971 19.2536C181.767 21.1039 181.785 24.8584 181.785 29.8793C176.216 29.6996 173.675 29.5649 171.636 27.5889Z" fill="white"/>
<path d="M181.785 30.1487V29.8793C176.216 29.6996 173.675 29.5649 171.636 27.5889C169.66 25.55 169.516 23.0081 169.345 17.4392H169.076C168.896 23.0081 168.761 25.55 166.785 27.5889C164.746 29.5649 162.205 29.7086 156.636 29.8793V30.1487C162.205 30.3284 164.746 30.4631 166.785 32.4391C168.761 34.4781 168.905 37.02 169.076 42.5888H169.345C169.525 37.02 169.66 34.4781 171.636 32.4391C173.675 30.4631 176.216 30.3194 181.785 30.1487Z" fill="#FF56AD"/>
</g>
<circle cx="100.238" cy="30.014" r="29.986" fill="#FF56AD"/>
<path d="M101.585 39.2716C92.0126 39.2716 86.5527 32.7091 86.3252 21.7891H91.1202C91.2777 29.8041 94.8126 33.1991 97.6126 33.8991V21.7891H102.128V28.7016C104.893 28.4041 107.797 25.2541 108.777 21.7891H113.293C112.54 26.0591 109.39 29.2091 107.15 30.5041C109.39 31.5541 112.978 34.3016 114.343 39.2716H109.373C108.305 35.9466 105.645 33.3741 102.128 33.0241V39.2716H101.585Z" fill="white"/>
<defs>
<clipPath id="clip0_58_934">
<rect width="27.0841" height="21.2804" fill="white" transform="translate(17.0508 19.3738)"/>
</clipPath>
<clipPath id="clip1_58_934">
<rect width="25.1495" height="25.1495" fill="white" transform="translate(156.636 17.4392)"/>
</clipPath>
</defs>
</svg>
