<svg width="185" height="147" viewBox="0 0 185 147" fill="none" xmlns="http://www.w3.org/2000/svg">
<path d="M41.2592 130.252L41.2596 130.255H41.6888C41.9628 130.255 42.2372 130.255 42.5119 130.255C43.0617 130.256 43.6123 130.256 44.1623 130.255C49.7346 130.244 55.0206 128.964 59.9542 126.39C63.045 124.777 66.0731 123.037 69.0502 121.231C72.9241 118.881 76.4559 116.042 79.9562 113.229C81.0646 112.339 82.1698 111.451 83.2816 110.581C91.6031 104.076 99.9085 97.5483 108.213 91.0215C112.97 87.2829 117.727 83.5443 122.487 79.8101C124.645 78.1174 126.813 76.4335 128.983 74.7487C132.75 71.8234 136.52 68.8955 140.242 65.9144C148.962 58.9316 157.34 51.5503 165.489 43.913C170.109 39.5819 174.75 35.2159 178.822 30.2907C179.98 28.8909 181.093 27.4256 182.075 25.8826C184.616 21.8903 185.056 17.6328 183.502 13.1356L183.029 13.299L183.502 13.1356C180.415 4.20808 172.787 -0.0538243 164.551 0.768628C160.829 1.14035 157.222 2.01823 153.703 3.18502C145.954 5.75383 138.808 9.5431 132.174 14.2461L132.463 14.654L132.174 14.2461C127.725 17.4006 123.324 20.6316 118.927 23.8598C116.384 25.7262 113.843 27.5917 111.295 29.4409C92.388 43.1609 74.2948 57.8899 56.8176 73.3866C54.4354 75.4989 52.0266 77.5564 49.6138 79.6174C47.7097 81.2439 45.8031 82.8725 43.9049 84.5319C40.1782 87.7899 36.4469 91.059 32.8171 94.4381C29.7465 97.2963 27.7877 100.858 27.1868 105.073C26.7304 108.273 25.2532 110.936 23.0203 113.24C21.4372 114.874 19.851 116.496 18.2131 118.06C16.8885 119.324 15.5395 120.583 14.1881 121.844C12.4658 123.451 10.7396 125.061 9.05509 126.692C7.02759 128.654 5.17887 130.805 3.66477 133.229C2.64531 134.861 1.81312 136.606 1.41645 138.548C0.988134 140.643 1.37902 142.53 2.4669 143.906C3.55601 145.283 5.29278 146.084 7.42564 146.106C8.6323 146.118 9.87364 145.986 11.0514 145.702C14.4032 144.893 17.254 143.111 19.8318 140.975C21.3528 139.715 22.8639 138.417 24.371 137.122C25.561 136.1 26.7484 135.079 27.9364 134.082L27.6149 133.699L27.9364 134.082C30.2596 132.13 32.781 130.697 35.7844 130.463C37.1333 130.358 38.4791 130.325 39.8401 130.291C40.3111 130.279 40.7839 130.267 41.2592 130.252ZM16.7059 137.693C15.6537 134.723 14.2605 131.971 11.6637 129.907C11.7061 129.861 11.7492 129.816 11.7961 129.77C12.9308 128.674 14.0674 127.578 15.2043 126.482C16.8462 124.898 18.4887 123.315 20.1265 121.728L19.7786 121.369L20.1265 121.728C20.4747 121.391 20.8248 121.054 21.1755 120.716C22.432 119.505 23.6963 118.288 24.9133 117.027C28.0721 113.754 30.3443 109.968 31.0008 105.304C31.3989 102.475 32.7629 100.079 34.7424 98.0069C37.4518 95.1704 40.4229 92.6178 43.5128 90.1705C47.4973 87.0147 51.4768 83.8351 55.3512 80.5316C58.9011 77.5048 62.4182 74.452 65.9333 71.401C70.7515 67.219 75.566 63.0402 80.4561 58.9356C92.7471 48.6189 105.563 38.9745 118.676 29.7191C120.233 28.6201 121.787 27.518 123.34 26.4163C127.515 23.4549 131.687 20.4963 135.907 17.6067L135.63 17.2015L135.907 17.6067C141.789 13.5795 147.989 10.1611 154.746 7.89446C158.308 6.69977 161.89 5.68562 165.607 5.40521L165.57 4.90662L165.607 5.4052C171.251 4.97906 176.531 7.5525 179.086 13.5377C180.779 17.5064 180.604 21.1731 178.025 24.5495C175.955 27.2591 173.715 29.8565 171.396 32.3693C167.842 36.2206 163.934 39.7004 160.005 43.1985C159.217 43.9008 158.427 44.6038 157.64 45.3108C145.661 56.0613 133.092 66.095 120.425 76.0324C115.455 79.9314 110.494 83.8377 105.534 87.7437C99.4935 92.4996 93.4542 97.2551 87.4001 101.996C81.6424 106.506 75.8835 111.007 70.0322 115.381L70.3316 115.782L70.0322 115.381C65.9877 118.405 61.5736 120.869 56.9882 123.041C53.0001 124.93 48.8419 126.021 44.434 126.022C43.8727 126.023 43.3172 126.03 42.7653 126.037C41.5157 126.053 40.2848 126.068 39.0484 126.003C33.6239 125.714 28.9498 127.503 24.8527 130.947C22.8664 132.617 20.8647 134.266 18.8607 135.916C18.1425 136.508 17.424 137.1 16.7059 137.693ZM11.6613 140.867C10.0763 141.65 8.47517 142.027 6.77405 141.821C6.28229 141.761 5.91415 141.546 5.67908 141.253C5.44385 140.96 5.31711 140.559 5.36453 140.08C5.55023 138.208 6.4798 136.622 7.54302 134.982C7.54329 134.982 7.54357 134.982 7.54384 134.982C7.57744 134.99 7.60986 134.997 7.64132 135.004C7.77418 135.033 7.88992 135.058 8.00557 135.094C8.16022 135.142 8.24849 135.19 8.29695 135.234L8.63206 134.862L8.29703 135.234C9.43717 136.263 10.4066 137.362 10.9296 138.751L11.3975 138.575L10.9296 138.751C11.1351 139.297 11.3186 139.845 11.5136 140.427C11.562 140.572 11.611 140.718 11.6613 140.867ZM7.56981 134.941C7.56946 134.942 7.56911 134.942 7.56876 134.943L7.56981 134.941ZM14.2186 139.466C14.2018 139.477 14.1806 139.489 14.1542 139.504C14.1126 139.182 14.0577 138.869 13.9899 138.564C14.0715 138.858 14.1468 139.156 14.2166 139.457L14.2404 139.452C14.2404 139.452 14.2404 139.452 14.2403 139.452L14.2166 139.457C14.2173 139.46 14.218 139.463 14.2186 139.466ZM13.1929 136.327C12.3817 134.729 11.1256 133.419 9.49955 132.354L9.70399 132.104C9.80403 132.18 9.90406 132.255 10.0021 132.328C10.1291 132.423 10.2526 132.515 10.3685 132.604C10.7052 132.862 11.0089 133.114 11.2697 133.393C12.0893 134.27 12.7107 135.258 13.1929 136.327Z" fill="#D071FF" stroke="#D071FF"/>
<path d="M57.9281 88.4846C57.9953 92.9082 59.5324 96.8428 61.9074 100.421C63.2733 102.479 65.3466 103.388 67.7519 103.415C69.3262 103.433 70.7795 103.01 72.1572 102.417L71.9594 101.957L72.1572 102.416C75.4659 100.991 78.5483 99.155 81.4544 97.0795L81.1638 96.6726L81.4544 97.0794C82.8126 96.1092 84.1752 95.1423 85.5387 94.1748C90.9052 90.3667 96.2853 86.549 101.465 82.48C112.268 73.9928 122.952 65.3514 133.632 56.7131C135.662 55.0704 137.693 53.4278 139.725 51.7864C144.65 47.8069 149.576 43.7988 154.317 39.5842C156.534 37.6136 158.429 35.2596 160.27 32.9733C160.368 32.851 160.466 32.729 160.565 32.6072C162.213 30.5618 162.462 28.1181 161.666 25.6596C160.712 22.7141 159.012 20.2495 156.746 18.2063L156.411 18.5776L156.746 18.2062C154.984 16.6175 152.846 15.9486 150.48 16.4667C149.359 16.7122 148.123 17.0296 147.074 17.6427C143.112 19.9573 139.139 22.29 135.289 24.8109C130.887 27.693 126.748 30.9459 122.629 34.183C121.609 34.9845 120.59 35.7851 119.569 36.5789C113.621 41.2026 107.637 45.7805 101.652 50.3596C100.198 51.472 98.7436 52.5845 97.2899 53.6977L97.5939 54.0946L97.2899 53.6977C94.564 55.7852 91.817 57.877 89.0693 59.9692C86.2178 62.1405 83.3656 64.3123 80.5355 66.4806C75.6311 70.2379 70.7391 74.0113 65.8562 77.7965C63.8837 79.3253 61.8999 80.8664 59.9953 82.5015L60.321 82.8809L59.9953 82.5015C59.1749 83.206 58.5292 84.1225 57.9748 84.9819L57.9747 84.982C57.622 85.5289 57.5889 86.2762 57.6017 86.7916L57.9281 88.4846ZM57.9281 88.4846C57.8968 88.3426 57.8631 88.2114 57.8273 88.072C57.7993 87.9631 57.77 87.8492 57.7396 87.7211C57.6716 87.4351 57.6098 87.1202 57.6017 86.7918L57.9281 88.4846ZM71.4536 99.0948C70.4669 99.6702 69.396 100.053 68.0903 100.118V100.091L67.5552 100.129C65.9846 100.239 64.8245 99.2851 63.9584 97.6656C62.5978 95.1217 61.4639 92.5177 60.9153 89.7043L60.4246 89.8L60.9153 89.7043C60.8386 89.3108 60.7392 88.923 60.6441 88.5515L60.6237 88.472C60.5217 88.0732 60.4261 87.6918 60.358 87.3095C60.3581 87.3064 60.3585 87.2991 60.3604 87.2873C60.3644 87.2629 60.3731 87.23 60.3881 87.1922C60.4206 87.1101 60.4642 87.0496 60.4883 87.0263C61.528 86.0192 62.5716 85.0258 63.6536 84.0834L63.3252 83.7063L63.6536 84.0833C64.4654 83.3762 65.3228 82.7181 66.1932 82.05C66.2623 81.9969 66.3314 81.9439 66.4006 81.8907C68.604 80.1983 70.8054 78.5039 73.0065 76.8097C78.7929 72.356 84.5777 67.9035 90.3935 63.4911C94.3879 60.4607 98.4027 57.4568 102.419 54.4518L102.745 54.208C106.869 51.122 110.995 48.034 115.099 44.916L114.796 44.5179L115.099 44.916C118.773 42.1235 122.394 39.2574 126.011 36.395C127.152 35.4922 128.292 34.5897 129.433 33.69C135.299 29.0665 141.34 24.7467 147.934 21.2699C149.166 20.6205 150.374 20.1074 151.705 19.9948L151.705 19.9948C152.671 19.9128 153.509 20.126 154.224 20.7133C156.204 22.3404 157.667 24.3187 158.461 26.7521L158.936 26.597L158.461 26.7522C158.896 28.0849 158.718 29.3417 157.923 30.4611L157.923 30.4611C157.16 31.5352 156.4 32.5822 155.493 33.4363C155.1 33.8057 154.708 34.1754 154.317 34.5449C151.527 37.1762 148.747 39.798 145.821 42.24L146.141 42.6239L145.821 42.24C140.135 46.9848 134.369 51.6329 128.599 56.2838C127.683 57.0223 126.767 57.7608 125.851 58.4999C123.786 60.1656 121.725 61.8344 119.664 63.5029C112.814 69.0477 105.969 74.5892 99.0248 80.0054C92.9881 84.7137 86.7545 89.1792 80.4912 93.6024L80.7796 94.0108L80.4912 93.6024C78.2364 95.1949 75.8346 96.5738 73.4122 97.9645C72.76 98.339 72.1063 98.7143 71.4536 99.0948L71.7055 99.5268L71.4536 99.0948Z" fill="#D071FF" stroke="#D071FF"/>
<path d="M49.2305 115.9C42.0693 115.913 37.9861 109.589 40.9253 104.131C42.4702 101.262 46.8446 99.0552 50.1166 99.4743C50.8286 99.5657 51.5518 99.6311 52.269 99.6178C54.231 99.5828 55.761 100.486 56.3153 102.265C57.7556 106.89 57.9016 110.25 53.7146 113.96C52.2579 115.251 50.49 115.883 49.2312 115.9H49.2305ZM44.0261 108.474C44.444 109.203 44.713 110.102 45.3094 110.628C46.9565 112.079 49.2734 111.916 51.0191 110.402C52.8892 108.78 53.3197 106.813 52.1853 104.816C52.0067 104.502 51.6 104.087 51.3169 104.101C49.818 104.172 48.2317 104.099 46.855 104.587C45.2887 105.142 44.3522 106.531 44.0254 108.474H44.0261Z" fill="#D071FF"/>
<path d="M100.699 64.7849C104.356 65.3276 104.874 68.7419 103.905 70.9454C103.032 72.9345 101.683 74.2088 99.3643 74.1144C98.7422 74.0892 98.1169 74.149 97.4944 74.1263C97.1674 74.1144 96.7726 74.1016 96.5376 73.9207C96.2791 73.7217 96.0277 73.3223 96.0404 73.0219C96.0503 72.7895 96.4361 72.4606 96.7171 72.3716C97.9234 71.9888 99.1662 71.7209 100.37 71.3298C101.554 70.9449 102.283 69.7482 102.195 68.5156C102.117 67.4405 101.243 66.845 100.222 67.18C99.9477 67.2703 99.6831 67.3894 99.4123 67.4911C98.9312 67.6725 98.3975 67.663 98.144 67.2299C97.9398 66.8812 97.9061 66.3533 97.9809 65.938C98.0775 65.3998 98.3753 64.9003 98.5491 64.372C98.6358 64.1078 98.6395 63.8161 98.697 63.4254C97.5643 63.9001 96.7985 64.6011 96.2812 65.5823C96.1148 65.8976 96.0141 66.2598 95.7988 66.533C95.6444 66.7292 95.3255 66.9472 95.1234 66.9113C94.9093 66.873 94.6037 66.5553 94.5893 66.3426C94.5511 65.7735 94.5387 65.1603 94.7101 64.6275C95.314 62.7471 96.6715 61.6319 98.5606 61.1951C99.6034 60.954 100.508 61.5594 100.677 62.6263C100.787 63.3178 100.698 64.0415 100.698 64.7845L100.699 64.7849Z" fill="#D071FF"/>
<path d="M103.542 62.7635C103.57 60.5798 104.224 58.5857 105.433 56.786C105.72 56.3583 106.158 55.9998 106.597 55.7208C106.8 55.5922 107.172 55.7327 107.467 55.7513C107.42 56.0175 107.439 56.3216 107.314 56.5445C106.119 58.678 105.52 60.9589 105.616 63.4047C105.637 63.9545 105.763 64.5108 105.92 65.0412C106.113 65.6968 106.591 66.0562 107.282 66.158C107.962 66.2585 108.511 66.0154 108.821 65.4545C109.146 64.8644 109.437 64.2133 109.547 63.5556C109.662 62.8653 109.282 62.6168 108.609 62.8101C108.315 62.8946 108.057 63.1154 107.762 63.1859C107.534 63.2403 107.184 63.2453 107.051 63.1105C106.916 62.9733 106.892 62.604 106.972 62.3963C107.35 61.4184 109.213 60.586 110.211 60.9087C111.204 61.2297 111.846 62.5117 111.535 63.7414C111.22 64.9864 110.669 66.1419 109.758 67.0695C108.109 68.7476 105.365 68.3726 104.362 66.247C103.86 65.1829 103.679 63.9668 103.353 62.8191C103.416 62.8006 103.479 62.7821 103.542 62.7635H103.542Z" fill="#D071FF"/>
<path d="M120.507 49.92C120.545 48.2984 120.807 46.9018 121.405 45.5831C121.981 44.3106 122.939 43.4654 124.299 43.1122C125.147 42.8917 126.048 43.2214 126.352 43.938C126.47 44.217 126.465 44.6765 126.304 44.9028C126.192 45.0618 125.664 45.08 125.423 44.9588C124.965 44.7293 124.582 44.7762 124.261 45.0915C123.87 45.4756 123.428 45.8778 123.215 46.3632C122.37 48.289 122.214 50.2955 122.9 52.3016C123.111 52.9181 123.486 53.5082 123.899 54.0171C124.493 54.7478 125.422 54.7902 126.062 54.0975C127.028 53.0512 127.913 51.929 128.831 50.8378C128.974 50.6672 129.077 50.4368 129.256 50.3297C129.443 50.2184 129.749 50.1236 129.908 50.2056C130.062 50.2848 130.224 50.6528 130.162 50.8019C129.301 52.881 128.217 54.85 126.359 56.1798C125.348 56.9039 124.165 56.6562 123.177 55.9087C121.626 54.7366 120.925 53.0751 120.629 51.2107C120.552 50.7273 120.536 50.2341 120.507 49.9205L120.507 49.92Z" fill="#D071FF"/>
<path d="M114.43 54.32C112.973 54.3143 111.987 53.0656 112.445 51.7799C112.531 51.5404 112.682 51.2355 112.886 51.1428C113.745 50.7513 113.968 49.4989 115.194 49.5702C116.502 49.646 117.443 50.6816 117.216 51.9859C116.986 53.3034 115.767 54.3254 114.431 54.32H114.43ZM114.419 52.9317C114.808 52.7652 115.077 52.7005 115.284 52.5501C115.614 52.3098 115.968 51.9599 115.661 51.5553C115.473 51.308 115.049 51.1906 114.711 51.13C114.551 51.1015 114.357 51.3954 114.153 51.451C113.738 51.5639 113.562 51.8507 113.722 52.1899C113.861 52.4845 114.183 52.6918 114.419 52.9317Z" fill="#D071FF"/>
</svg>
