<svg width="19" height="17" viewBox="0 0 19 17" fill="none" xmlns="http://www.w3.org/2000/svg">
<path d="M8.87177 16.1764L8.87167 16.1763C8.58975 16.0051 8.27355 15.7987 7.93294 15.5693C6.96347 14.9138 5.99008 14.1866 5.08806 13.36C2.43461 10.9268 0.87207 8.30646 0.87207 5.56355C0.87207 2.989 2.95881 0.902588 5.53302 0.902588C7.07415 0.902588 8.50011 1.67912 9.37796 2.86568L9.57469 3.13159L9.77683 2.86976C10.6821 1.69708 12.1168 0.902588 13.5691 0.902588C16.1433 0.902588 18.2301 2.989 18.2301 5.56355C18.2301 8.30646 16.6675 10.9268 14.0141 13.36C13.112 14.1866 12.1385 14.9139 11.169 15.5695C10.8285 15.7988 10.5123 16.0052 10.2305 16.1763L10.2304 16.1764C10.1405 16.231 10.0718 16.2743 10.0171 16.3087C9.956 16.3472 9.91243 16.3746 9.87646 16.3945L9.876 16.3948C9.68191 16.5027 9.42025 16.5027 9.22616 16.3948L9.22569 16.3945C9.18972 16.3746 9.14615 16.3471 9.08506 16.3087C9.03038 16.2743 8.96165 16.231 8.87177 16.1764Z" stroke="#C1C1C1" stroke-width="0.5"/>
</svg>
