<svg width="210" height="60" viewBox="0 0 210 60" fill="none" xmlns="http://www.w3.org/2000/svg">
<path d="M32.8738 46.5505C32.1595 46.5505 31.4563 46.3075 30.8954 45.8682C29.176 44.5194 23.5551 39.7686 23.4016 35.2596C23.3476 33.6592 23.9748 32.2564 25.2683 31.0917C25.8157 30.5984 26.5521 30.3382 27.3989 30.3382C28.3905 30.3382 29.4521 30.7015 30.2388 31.3114C30.9163 31.8355 31.4612 32.5019 31.9852 33.453C32.7474 31.9864 34.5711 30.5076 36.2795 30.5076C36.6476 30.5076 37.0048 30.5738 37.3398 30.7027C38.68 31.2218 39.5612 32.3325 39.8877 33.9133C40.5872 37.3067 38.5818 42.2366 35.1197 45.6362C34.5183 46.2265 33.7206 46.553 32.875 46.553L32.8738 46.5505Z" fill="#B1E384"/>
<path d="M63.0889 45.9284C63.0889 62.134 38.0599 64.5145 37.525 50.7635C37.2953 44.8556 51.6916 33.069 44.3545 26.4837C38.9221 21.6085 34.5964 29.6608 32.1754 29.6608C30.1311 29.6608 28.8267 22.0074 23.1979 23.6045C14.2081 26.1528 21.6477 39.2579 21.8577 44.4834C22.0331 48.8416 21.5229 55.1375 11.6685 54.3007C-11.2483 52.1416 6.32373 29.4589 8.24324 22.9355C11.2151 12.7716 9.74031 1.48983 18.1694 0.313607C25.1717 -0.663132 28.2758 11.6221 32.7213 11.5248C37.7116 11.4154 39.8966 -0.306738 48.3467 0.733253C51.2482 1.09086 53.7433 3.18179 55.8271 7.0401C58.027 11.1575 57.8924 22.0257 58.1728 28.504C58.4766 36.0248 63.0889 41.6967 63.0889 45.9284Z" fill="#FF56AD"/>
<path d="M76.3418 12.1057C76.6699 12.0485 77.0256 12.0117 77.4071 11.9969C77.7886 11.9822 78.0909 11.9748 78.312 11.9748C78.5332 11.9748 78.8318 11.9822 79.1746 11.9969C79.5174 12.0117 79.8473 12.0485 80.1661 12.1057L83.0339 21.3762C83.1021 21.6085 83.1924 21.9365 83.3085 22.3604C83.4246 22.7862 83.5444 23.234 83.6698 23.7077C83.7951 24.1813 83.9038 24.62 83.996 25.0255C84.0881 25.4309 84.149 25.7258 84.1766 25.9083H84.3351C84.3738 25.7258 84.4383 25.4309 84.5305 25.0255C84.6226 24.62 84.7314 24.1813 84.8567 23.7077C84.982 23.234 85.1037 22.7862 85.2179 22.3604C85.334 21.9347 85.4262 21.6066 85.4925 21.3762L88.3603 12.1057C88.7087 12.0485 89.0441 12.0117 89.3666 11.9969C89.6892 11.9822 89.973 11.9748 90.2144 11.9748C90.4374 11.9748 90.7305 11.9822 91.0973 11.9969C91.464 12.0117 91.8271 12.0485 92.1828 12.1057L93.7181 31.8337C93.5153 31.8908 93.2758 31.9351 93.0011 31.9646C92.7265 31.994 92.4667 32.0088 92.2271 32.0088C92.004 32.0088 91.7884 32.0014 91.5746 31.9867C91.3627 31.9719 91.1452 31.9461 90.9222 31.9074L90.2126 21.0426C90.1831 20.5303 90.1555 19.9331 90.126 19.2457C90.0965 18.56 90.0707 17.8615 90.0467 17.152C90.0228 16.4424 90.0007 15.8028 89.9822 15.2333H89.8237L85.7395 28.8351C85.5165 28.8738 85.2695 28.9032 84.9931 28.9217C84.7185 28.942 84.4697 28.9512 84.2466 28.9512C84.0236 28.9512 83.7785 28.942 83.5076 28.9217C83.2367 28.9032 82.9952 28.8738 82.7833 28.8351L78.6991 15.2333H78.5406C78.5203 15.8028 78.4963 16.4424 78.4687 17.152C78.4392 17.8615 78.4134 18.56 78.3894 19.2457C78.3655 19.9313 78.3378 20.5303 78.3102 21.0426L77.5859 31.9074C77.3739 31.9461 77.1564 31.9719 76.9334 31.9867C76.7104 32.0014 76.4837 32.0088 76.2533 32.0088C76.0229 32.0088 75.7576 31.994 75.4922 31.9646C75.2268 31.9351 74.9964 31.8927 74.8047 31.8337L76.34 12.1057H76.3418Z" fill="#231F20"/>
<path d="M109.672 24.7361C109.672 26.205 109.438 27.5025 108.97 28.6323C108.501 29.7621 107.807 30.6486 106.883 31.29C105.962 31.9314 104.813 32.2539 103.442 32.2539C102.071 32.2539 100.926 31.9295 100.009 31.2826C99.0908 30.6357 98.4015 29.7455 97.937 28.6102C97.4726 27.4749 97.2422 26.1847 97.2422 24.7361C97.2422 23.2875 97.4763 21.9697 97.9444 20.8399C98.4125 19.7101 99.1074 18.8236 100.031 18.1822C100.952 17.5408 102.089 17.2183 103.442 17.2183C104.795 17.2183 105.975 17.5427 106.898 18.1896C107.819 18.8365 108.512 19.7248 108.977 20.8546C109.44 21.9844 109.672 23.2782 109.672 24.7361ZM100.169 24.7361C100.169 25.6447 100.265 26.5054 100.458 27.3219C100.652 28.1384 100.987 28.8 101.465 29.3069C101.942 29.8137 102.611 30.068 103.47 30.068C104.329 30.068 104.981 29.8137 105.455 29.3069C105.928 28.8 106.26 28.1384 106.454 27.3219C106.647 26.5054 106.743 25.6447 106.743 24.7361C106.743 23.8275 106.647 22.9668 106.454 22.1503C106.26 21.3338 105.927 20.6685 105.455 20.1506C104.981 19.6345 104.32 19.3765 103.47 19.3765C102.62 19.3765 101.942 19.6345 101.465 20.1506C100.987 20.6666 100.65 21.3338 100.458 22.1503C100.265 22.9668 100.169 23.8275 100.169 24.7361Z" fill="#231F20"/>
<path d="M114.552 17.4634C115.141 17.4634 115.551 17.6404 115.783 17.9924C116.015 18.3444 116.131 18.8402 116.131 19.4779V31.8779C115.744 31.9553 115.282 31.994 114.742 31.994C114.201 31.994 113.713 31.9553 113.308 31.8779V17.668L113.496 17.4653H114.554L114.552 17.4634ZM121.157 22.7659C121.157 21.7227 121.015 20.9837 120.73 20.5505C120.444 20.1156 119.998 19.8981 119.39 19.8981C118.907 19.8981 118.391 20.0474 117.84 20.3478C117.289 20.6464 116.773 21.0537 116.29 21.5642C115.807 22.0766 115.431 22.6461 115.16 23.2727V20.4621C115.575 19.8539 116.056 19.3157 116.601 18.8476C117.147 18.3794 117.731 18.0108 118.354 17.7399C118.977 17.469 119.611 17.3344 120.258 17.3344C121.098 17.3344 121.795 17.5353 122.351 17.9352C122.906 18.3352 123.319 18.877 123.59 19.5571C123.861 20.2372 123.995 20.9929 123.995 21.8241V31.8761C123.599 31.9535 123.131 31.9922 122.591 31.9922C122.051 31.9922 121.563 31.9535 121.157 31.8761V22.764V22.7659ZM129.036 22.7364C129.036 21.6932 128.889 20.9597 128.594 20.5339C128.299 20.1082 127.853 19.8963 127.254 19.8963C126.78 19.8963 126.273 20.0382 125.733 20.3238C125.192 20.6095 124.676 21.0095 124.183 21.5255C123.691 22.0416 123.28 22.6442 122.952 23.3299V20.0861C123.426 19.5645 123.944 19.0964 124.51 18.6817C125.075 18.267 125.665 17.9389 126.285 17.6975C126.902 17.4561 127.53 17.3363 128.168 17.3363C129.009 17.3363 129.702 17.539 130.247 17.9445C130.793 18.3499 131.2 18.8936 131.471 19.5737C131.742 20.2538 131.876 21.015 131.876 21.8554V28.8811C131.876 29.3843 131.908 29.8561 131.97 30.3003C132.033 30.7445 132.151 31.1315 132.324 31.4596C132.112 31.6328 131.847 31.7784 131.528 31.8945C131.209 32.0106 130.881 32.0678 130.544 32.0678C129.993 32.0678 129.604 31.9148 129.377 31.6107C129.15 31.3066 129.036 30.855 129.036 30.256V22.7382V22.7364Z" fill="#231F20"/>
<path d="M141.35 30.8053C141.368 30.4772 141.473 30.1178 141.661 29.7252C141.849 29.3327 142.065 29.0322 142.306 28.8203C142.914 29.1484 143.569 29.4451 144.269 29.7105C144.969 29.9759 145.677 30.1086 146.39 30.1086C147.211 30.1086 147.861 29.9298 148.338 29.5723C148.816 29.2147 149.061 28.7613 149.07 28.2102C149.07 27.7845 148.91 27.3938 148.593 27.0362C148.274 26.6787 147.806 26.3893 147.188 26.1663L145.508 25.5433C144.84 25.3019 144.228 24.9996 143.668 24.6384C143.108 24.2772 142.662 23.8348 142.328 23.3133C141.995 22.7917 141.829 22.165 141.829 21.4297C141.829 20.5597 142.05 19.8115 142.496 19.1848C142.94 18.5563 143.547 18.0716 144.313 17.7288C145.082 17.386 145.942 17.2146 146.899 17.2146C147.671 17.2146 148.495 17.316 149.369 17.5187C150.242 17.7214 150.974 17.9629 151.564 18.243C151.573 18.5914 151.501 18.9692 151.346 19.3802C151.191 19.7912 150.985 20.1119 150.723 20.3441C150.231 20.1119 149.647 19.8981 148.971 19.699C148.294 19.5018 147.594 19.4023 146.87 19.4023C146.223 19.4023 145.696 19.5645 145.29 19.887C144.885 20.2114 144.682 20.6371 144.682 21.1698C144.682 21.5845 144.839 21.9328 145.152 22.213C145.465 22.4931 145.931 22.7493 146.549 22.9815L148.331 23.6487C149.413 24.0449 150.294 24.5886 150.974 25.2779C151.654 25.9691 151.995 26.8685 151.995 27.9799C151.995 29.3124 151.479 30.3574 150.445 31.1167C149.411 31.8742 148.055 32.2539 146.376 32.2539C145.362 32.2539 144.428 32.1083 143.572 31.8189C142.717 31.5296 141.976 31.1905 141.35 30.8053Z" fill="#231F20"/>
<path d="M156.457 17.4634C157.075 17.4634 157.517 17.657 157.782 18.0422C158.048 18.4292 158.181 18.9637 158.181 19.6493V36.2792C158.181 36.9168 158.077 37.3831 157.869 37.6762C157.661 37.9711 157.254 38.1185 156.645 38.1185H155.587L155.399 37.9305V17.6514L155.587 17.4634H156.457ZM167.105 24.561C167.105 26.2898 166.834 27.7108 166.294 28.8277C165.754 29.9427 165.057 30.7703 164.207 31.3121C163.358 31.854 162.479 32.1231 161.572 32.1231C160.665 32.1231 159.81 31.9351 159.038 31.5591C158.265 31.1831 157.541 30.7426 156.865 30.2413L157.169 27.967C157.72 28.3927 158.343 28.8093 159.038 29.2203C159.732 29.6313 160.453 29.8358 161.196 29.8358C161.747 29.8358 162.25 29.6478 162.709 29.2719C163.168 28.8959 163.535 28.3153 163.809 27.5339C164.084 26.7524 164.222 25.7572 164.222 24.55C164.222 23.3428 164.097 22.4212 163.846 21.6969C163.595 20.9726 163.262 20.4418 162.847 20.1027C162.432 19.7654 161.983 19.5958 161.5 19.5958C161.017 19.5958 160.473 19.7304 159.928 20.0013C159.382 20.2722 158.879 20.6851 158.422 21.2398C157.963 21.7946 157.607 22.4987 157.357 23.3483L156.791 21.1753C156.984 20.5284 157.331 19.9036 157.834 19.2991C158.335 18.6964 158.955 18.1988 159.688 17.8062C160.422 17.4155 161.238 17.2202 162.136 17.2202C163.227 17.2202 164.143 17.5316 164.88 18.1546C165.619 18.7775 166.174 19.6401 166.546 20.7404C166.918 21.8407 167.105 23.1161 167.105 24.5647V24.561Z" fill="#231F20"/>
<path d="M169.725 27.9946C169.725 26.8943 169.967 25.9912 170.45 25.2853C170.933 24.5813 171.589 24.0616 172.42 23.728C173.249 23.3944 174.191 23.2285 175.245 23.2285C175.796 23.2285 176.416 23.2525 177.107 23.3004C177.798 23.3483 178.432 23.446 179.011 23.5897V25.501C178.489 25.3757 177.899 25.2927 177.243 25.254C176.587 25.2153 175.973 25.1969 175.404 25.1969C174.497 25.1969 173.793 25.4273 173.297 25.8843C172.8 26.3433 172.551 26.9773 172.551 27.7882C172.551 28.4056 172.722 28.9272 173.065 29.353C173.408 29.7787 173.907 29.9907 174.563 29.9907C175.279 29.9907 176.038 29.74 176.845 29.2368C177.652 28.7355 178.325 27.9965 178.865 27.0215L179.315 29.2516C178.967 29.6571 178.537 30.092 178.025 30.5546C177.512 31.0191 176.919 31.4172 176.243 31.7489C175.566 32.0825 174.809 32.2484 173.968 32.2484C173.012 32.2484 172.221 32.0364 171.592 31.6107C170.964 31.1868 170.496 30.6468 170.188 29.9962C169.878 29.3437 169.724 28.6766 169.724 27.9891L169.725 27.9946ZM181.705 30.6302C181.628 30.8809 181.486 31.1518 181.278 31.4411C181.069 31.7305 180.845 31.948 180.605 32.0936C180.015 31.959 179.545 31.7268 179.193 31.3988C178.841 31.0707 178.578 30.6818 178.404 30.2321C178.231 29.7824 178.13 29.3032 178.1 28.7908V22.2296C178.1 21.2841 177.888 20.6077 177.463 20.2022C177.037 19.7967 176.449 19.594 175.695 19.594C174.941 19.594 174.191 19.7046 173.413 19.9276C172.636 20.1506 171.865 20.416 171.102 20.7238C170.87 20.4916 170.675 20.1764 170.516 19.7746C170.358 19.3747 170.267 18.9895 170.249 18.6227C170.78 18.3905 171.381 18.173 172.051 17.9703C172.722 17.7675 173.417 17.6035 174.138 17.4782C174.857 17.3529 175.546 17.2902 176.202 17.2902C177.158 17.2902 177.988 17.4671 178.694 17.8191C179.398 18.1712 179.941 18.7057 180.323 19.4189C180.705 20.134 180.894 21.0408 180.894 22.1429V28.0813C180.894 28.6415 180.944 29.13 181.047 29.5446C181.149 29.9593 181.368 30.3224 181.707 30.6302H181.705Z" fill="#231F20"/>
<path d="M193.004 23.0257C193.033 22.4083 192.976 21.8241 192.838 21.273C192.698 20.7219 192.432 20.2741 192.041 19.9257C191.651 19.5774 191.092 19.4042 190.368 19.4042C189.432 19.4042 188.693 19.8575 188.153 20.7662C187.611 21.6748 187.342 23.0257 187.342 24.8227C187.342 26.6197 187.638 27.8674 188.232 28.6839C188.825 29.5004 189.649 29.9077 190.702 29.9077C191.378 29.9077 192.012 29.7529 192.605 29.4433C193.199 29.1336 193.752 28.7908 194.264 28.4148C194.515 28.5696 194.762 28.8129 195.003 29.1465C195.245 29.4801 195.403 29.8063 195.481 30.1252C194.824 30.7629 194.05 31.2771 193.162 31.6678C192.274 32.0585 191.313 32.2539 190.28 32.2539C189.246 32.2539 188.357 32.053 187.614 31.6531C186.87 31.2531 186.262 30.7076 185.79 30.0164C185.316 29.3253 184.97 28.5346 184.747 27.6407C184.524 26.7469 184.413 25.8088 184.413 24.8227C184.413 23.046 184.702 21.5974 185.283 20.4768C185.862 19.3562 186.614 18.5342 187.535 18.0071C188.457 17.4818 189.426 17.2183 190.44 17.2183C191.328 17.2183 192.099 17.3528 192.751 17.6238C193.403 17.8947 193.944 18.2412 194.373 18.6669C194.802 19.0927 195.121 19.5571 195.329 20.064C195.538 20.5708 195.641 21.0666 195.641 21.5495C195.641 22.0323 195.53 22.4065 195.307 22.7014C195.084 22.9963 194.714 23.1437 194.192 23.1437C193.969 23.1437 193.767 23.1345 193.584 23.1142C193.4 23.0958 193.208 23.0663 193.005 23.0276L193.004 23.0257Z" fill="#231F20"/>
<path d="M199.826 25.6189V23.5473H207.04V23.1714C207.04 22.4765 206.94 21.837 206.743 21.2528C206.544 20.6685 206.227 20.2022 205.786 19.8557C205.348 19.5074 204.769 19.3341 204.056 19.3341C203.033 19.3341 202.264 19.7617 201.752 20.6169C201.24 21.4721 200.983 22.6369 200.983 24.115V24.9849C200.983 25.9212 201.083 26.7635 201.28 27.5118C201.477 28.26 201.824 28.8498 202.316 29.2792C202.808 29.7087 203.503 29.9243 204.402 29.9243C205.145 29.9243 205.855 29.8156 206.531 29.5981C207.207 29.3806 207.854 29.1134 208.472 28.7945C208.713 29.0175 208.914 29.3032 209.073 29.6571C209.231 30.0091 209.331 30.3298 209.369 30.621C208.684 31.1131 207.865 31.5093 206.914 31.8079C205.963 32.1065 204.985 32.2576 203.98 32.2576C202.85 32.2576 201.903 32.053 201.142 31.642C200.379 31.231 199.771 30.6763 199.317 29.9759C198.864 29.2756 198.54 28.4775 198.346 27.5781C198.152 26.6805 198.057 25.7387 198.057 24.7527C198.057 23.3133 198.281 22.0268 198.729 20.8915C199.179 19.7562 199.846 18.8605 200.736 18.2043C201.625 17.5482 202.731 17.2202 204.054 17.2202C205.3 17.2202 206.347 17.4985 207.196 18.0532C208.046 18.608 208.687 19.3526 209.122 20.2833C209.557 21.2159 209.775 22.2554 209.775 23.4054C209.775 23.8496 209.76 24.233 209.731 24.5573C209.701 24.8817 209.648 25.2356 209.572 25.6226H199.824L199.826 25.6189Z" fill="#231F20"/>
<path d="M74.8447 48.3548V40.6914H79.8265V41.5779H75.875V43.7564H77.5835C78.0867 43.7564 78.5253 43.8117 78.8976 43.9204C79.2699 44.0291 79.5777 44.1876 79.8228 44.3904C80.0679 44.595 80.2485 44.8382 80.3647 45.1184C80.4808 45.3985 80.5397 45.7118 80.5397 46.0547C80.5397 46.3975 80.4808 46.7089 80.3647 46.9909C80.2485 47.2711 80.0679 47.5144 79.8228 47.7189C79.5777 47.9235 79.2699 48.0802 78.8976 48.1889C78.5253 48.2977 78.0867 48.3529 77.5835 48.3529H74.8466L74.8447 48.3548ZM75.8731 47.4572H77.5264C77.8913 47.4572 78.1991 47.4259 78.4516 47.3651C78.7041 47.3024 78.9068 47.2121 79.0653 47.0923C79.222 46.9725 79.3344 46.8232 79.4044 46.6481C79.4745 46.473 79.5095 46.2758 79.5095 46.0565C79.5095 45.8372 79.4745 45.64 79.4044 45.4649C79.3344 45.2898 79.222 45.1423 79.0653 45.0207C78.9086 44.9009 78.7041 44.8088 78.4516 44.7461C78.1991 44.6834 77.8913 44.6539 77.5264 44.6539H75.8731V47.4572Z" fill="#231F20"/>
<path d="M81.9053 48.3548V42.5529H82.8692V44.7424H84.0414C84.4063 44.7424 84.7215 44.7848 84.9887 44.8677C85.2541 44.9525 85.4753 45.0705 85.6504 45.2234C85.8254 45.3764 85.9563 45.5662 86.0448 45.7929C86.1314 46.0196 86.1756 46.274 86.1756 46.5597C86.1756 46.8453 86.1314 47.0868 86.0448 47.3098C85.9563 47.5328 85.8254 47.7208 85.6504 47.8737C85.4753 48.0267 85.2541 48.1465 84.9887 48.2295C84.7215 48.3142 84.4063 48.3548 84.0414 48.3548H81.9071H81.9053ZM82.8692 47.5015H83.9861C84.4376 47.5015 84.7565 47.4204 84.9389 47.26C85.1214 47.0997 85.2117 46.8619 85.2117 46.5486C85.2117 46.2353 85.1195 45.9975 84.9389 45.8372C84.7565 45.6768 84.4395 45.5957 83.9861 45.5957H82.8692V47.5015ZM87.0732 48.3548V42.5529H88.0371V48.3548H87.0732Z" fill="#231F20"/>
<path d="M91.1131 48.3548V43.4062H89.1318V42.5529H94.0583V43.4062H92.077V48.3548H91.1131Z" fill="#231F20"/>
<path d="M95.1533 48.3548V42.5529H96.1172V44.7424H97.5069C97.8718 44.7424 98.187 44.7848 98.4542 44.8677C98.7215 44.9525 98.9408 45.0705 99.1159 45.2234C99.291 45.3764 99.4218 45.5662 99.5103 45.7929C99.5969 46.0196 99.6411 46.274 99.6411 46.5597C99.6411 46.8453 99.5969 47.0868 99.5103 47.3098C99.4218 47.5328 99.291 47.7208 99.1159 47.8737C98.9408 48.0267 98.7196 48.1465 98.4542 48.2295C98.187 48.3142 97.8718 48.3548 97.5069 48.3548H95.1533ZM96.1172 47.5015H97.4534C97.905 47.5015 98.2238 47.4204 98.4063 47.26C98.5888 47.0997 98.6791 46.8619 98.6791 46.5486C98.6791 46.2353 98.5869 45.9975 98.4063 45.8372C98.2238 45.6768 97.9068 45.5957 97.4534 45.5957H96.1172V47.5015Z" fill="#231F20"/>
<path d="M103.637 48.3548V42.5529H104.665L106.735 46.1652L108.805 42.5529H109.768V48.3548H108.805V44.1397L107.085 47.096H106.318L104.599 44.1397V48.3548H103.635H103.637Z" fill="#231F20"/>
<path d="M113.173 48.4654C112.859 48.4654 112.577 48.4193 112.33 48.329C112.082 48.2387 111.873 48.1115 111.706 47.9511C111.538 47.7908 111.411 47.601 111.322 47.3816C111.236 47.1623 111.191 46.9227 111.191 46.6592C111.191 46.3753 111.236 46.1284 111.322 45.9201C111.411 45.7118 111.536 45.5423 111.7 45.4114C111.864 45.2806 112.071 45.1829 112.319 45.1221C112.568 45.0594 112.848 45.0299 113.162 45.0299H115.045V44.6355C115.045 44.3867 115.018 44.1803 114.962 44.0107C114.907 43.843 114.824 43.7084 114.71 43.6052C114.597 43.5039 114.455 43.4301 114.288 43.3859C114.12 43.3417 113.926 43.3196 113.707 43.3196C113.503 43.3196 113.326 43.3417 113.176 43.3859C113.027 43.4301 112.904 43.4854 112.804 43.5555C112.705 43.6255 112.631 43.7048 112.579 43.7969C112.528 43.8891 112.494 43.9849 112.48 44.0863H111.516C111.531 43.8522 111.595 43.6366 111.707 43.4357C111.82 43.2348 111.975 43.0615 112.168 42.9159C112.362 42.7703 112.594 42.6542 112.863 42.5713C113.132 42.4883 113.433 42.446 113.761 42.446C114.089 42.446 114.413 42.4847 114.691 42.5602C114.97 42.6376 115.204 42.7593 115.397 42.927C115.591 43.0947 115.74 43.3103 115.847 43.5739C115.952 43.8375 116.005 44.1545 116.005 44.5268V46.8803C116.005 47.1863 116.005 47.4554 116.011 47.6857C116.015 47.9161 116.031 48.141 116.061 48.3585H115.218C115.196 48.1907 115.182 48.0322 115.174 47.883C115.167 47.7337 115.163 47.5641 115.163 47.3743C115.089 47.5272 114.99 47.6692 114.863 47.8019C114.736 47.9327 114.588 48.0488 114.419 48.1465C114.249 48.2442 114.061 48.3234 113.849 48.3824C113.637 48.4414 113.41 48.469 113.171 48.469L113.173 48.4654ZM113.381 47.5899C113.608 47.5899 113.821 47.5586 114.022 47.4959C114.223 47.4332 114.4 47.3429 114.553 47.2231C114.706 47.1033 114.826 46.9541 114.914 46.7734C115.003 46.5947 115.045 46.3919 115.045 46.1652V45.7708H113.326C112.968 45.7708 112.686 45.8427 112.483 45.9846C112.281 46.1265 112.177 46.3514 112.177 46.6573C112.177 46.9283 112.273 47.1494 112.467 47.3245C112.66 47.4996 112.964 47.5881 113.381 47.5881V47.5899Z" fill="#231F20"/>
<path d="M117.705 48.3548V42.5529H118.733L120.803 46.1652L122.873 42.5529H123.837V48.3548H122.873V44.1397L121.153 47.096H120.387L118.667 44.1397V48.3548H117.703H117.705Z" fill="#231F20"/>
<path d="M127.996 48.4653C127.624 48.4653 127.27 48.4045 126.935 48.2847C126.599 48.1649 126.303 47.9825 126.048 47.7373C125.792 47.4922 125.587 47.1844 125.434 46.8121C125.282 46.4398 125.204 46.0049 125.204 45.5091V45.2898C125.204 44.8161 125.282 44.4014 125.434 44.0475C125.587 43.6937 125.792 43.3988 126.048 43.161C126.304 42.9233 126.599 42.7445 126.935 42.6247C127.27 42.5049 127.624 42.4441 127.996 42.4441C128.369 42.4441 128.722 42.5049 129.058 42.6247C129.393 42.7445 129.69 42.9233 129.944 43.161C130.201 43.3988 130.403 43.6937 130.558 44.0475C130.711 44.4014 130.789 44.8161 130.789 45.2898V45.5091C130.789 46.0049 130.711 46.4398 130.558 46.8121C130.405 47.1844 130.201 47.4922 129.944 47.7373C129.688 47.9825 129.393 48.1649 129.058 48.2847C128.722 48.4045 128.369 48.4653 127.996 48.4653ZM127.996 47.5899C128.216 47.5899 128.435 47.5512 128.652 47.4756C128.87 47.4001 129.065 47.2784 129.233 47.1144C129.401 46.9504 129.537 46.7366 129.644 46.4748C129.749 46.2113 129.803 45.8906 129.803 45.5109V45.2916C129.803 44.9414 129.749 44.6429 129.644 44.394C129.539 44.1452 129.401 43.9425 129.233 43.7803C129.065 43.62 128.872 43.5038 128.652 43.4301C128.433 43.3564 128.214 43.3214 127.996 43.3214C127.779 43.3214 127.558 43.3582 127.34 43.4301C127.121 43.5038 126.927 43.62 126.76 43.7803C126.592 43.9406 126.456 44.1452 126.349 44.394C126.244 44.6429 126.19 44.9414 126.19 45.2916V45.5109C126.19 45.8906 126.244 46.2113 126.349 46.4748C126.454 46.7384 126.592 46.9504 126.76 47.1144C126.927 47.2784 127.121 47.3982 127.34 47.4756C127.56 47.553 127.779 47.5899 127.996 47.5899Z" fill="#231F20"/>
<path d="M132.156 48.3548V42.5528H133.12V46.9319L136.121 42.5528H137.085V48.3548H136.121V43.9757L133.12 48.3548H132.156ZM134.62 41.8414C134.337 41.8414 134.09 41.8101 133.881 41.7474C133.673 41.6848 133.504 41.5945 133.373 41.4747C133.242 41.3549 133.142 41.2056 133.078 41.025C133.011 40.8462 132.98 40.6434 132.98 40.4167H133.922C133.922 40.6656 133.981 40.8517 134.097 40.9752C134.213 41.0987 134.388 41.1613 134.622 41.1613C134.856 41.1613 135.044 41.0987 135.164 40.9752C135.284 40.8517 135.345 40.6656 135.345 40.4167H136.264C136.264 40.6434 136.231 40.8462 136.165 41.025C136.099 41.2037 136.001 41.353 135.87 41.4747C135.739 41.5945 135.57 41.6866 135.361 41.7474C135.153 41.8101 134.908 41.8414 134.622 41.8414H134.62Z" fill="#231F20"/>
<path d="M141.572 48.3548V42.5529H142.536V46.9319L145.537 42.5529H146.501V48.3548H145.537V43.9757L142.536 48.3548H141.572Z" fill="#231F20"/>
<path d="M153.395 48.4654C153.015 48.4654 152.658 48.3916 152.322 48.246C151.987 48.1004 151.696 47.8866 151.453 47.6065C151.207 47.3264 151.014 46.9799 150.872 46.5725C150.73 46.1634 150.658 45.7008 150.658 45.1829V44.9636C150.658 44.3074 150.706 43.7214 150.8 43.2071C150.894 42.6929 151.058 42.2543 151.287 41.893C151.517 41.5318 151.819 41.2498 152.195 41.0452C152.571 40.8407 153.043 40.7245 153.613 40.6951C153.847 40.6803 154.062 40.6711 154.26 40.6674C154.457 40.6637 154.643 40.6527 154.818 40.6342C154.993 40.6158 155.153 40.5918 155.299 40.5624C155.445 40.5329 155.577 40.4849 155.693 40.4204V41.3512C155.634 41.3807 155.553 41.4083 155.446 41.4341C155.341 41.4599 155.209 41.482 155.052 41.5005C154.895 41.5189 154.711 41.5355 154.499 41.5502C154.287 41.565 154.046 41.576 153.777 41.5834C153.426 41.5908 153.119 41.635 152.851 41.7143C152.584 41.7954 152.359 41.9225 152.173 42.0976C151.987 42.2727 151.841 42.5013 151.735 42.7814C151.629 43.0615 151.561 43.408 151.532 43.8153C151.62 43.6181 151.733 43.443 151.871 43.2901C152.009 43.1371 152.166 43.0062 152.341 42.8957C152.516 42.7869 152.711 42.7021 152.927 42.6432C153.143 42.5842 153.371 42.5547 153.611 42.5547C153.983 42.5547 154.322 42.6192 154.628 42.7464C154.934 42.8735 155.199 43.0542 155.422 43.2882C155.645 43.5223 155.819 43.808 155.942 44.1471C156.066 44.4862 156.128 44.8677 156.128 45.2916V45.511C156.128 45.957 156.058 46.3606 155.92 46.7255C155.782 47.0904 155.592 47.4019 155.351 47.6618C155.109 47.9217 154.822 48.1207 154.486 48.2589C154.151 48.3972 153.786 48.4672 153.391 48.4672L153.395 48.4654ZM153.395 47.5899C153.651 47.5899 153.885 47.5438 154.101 47.4535C154.317 47.3632 154.501 47.2287 154.654 47.0536C154.807 46.8785 154.927 46.661 155.015 46.403C155.102 46.1431 155.146 45.8464 155.146 45.511V45.2916C155.146 45.0078 155.102 44.7516 155.015 44.5249C154.927 44.2982 154.807 44.1029 154.654 43.9388C154.501 43.7748 154.317 43.6495 154.101 43.561C153.885 43.4744 153.649 43.4301 153.395 43.4301C153.141 43.4301 152.905 43.4744 152.689 43.561C152.474 43.6495 152.289 43.7748 152.136 43.9388C151.983 44.1029 151.864 44.2982 151.775 44.5249C151.687 44.7516 151.644 45.006 151.644 45.2916V45.511C151.644 45.8316 151.69 46.1228 151.781 46.3809C151.871 46.6407 151.998 46.8582 152.158 47.037C152.319 47.2158 152.505 47.3522 152.717 47.448C152.929 47.542 153.156 47.5899 153.395 47.5899Z" fill="#231F20"/>
<path d="M157.5 48.3548V42.5529H158.464V44.7424H159.636C160.001 44.7424 160.316 44.7848 160.583 44.8677C160.849 44.9525 161.07 45.0705 161.245 45.2234C161.42 45.3764 161.551 45.5662 161.639 45.7929C161.726 46.0196 161.77 46.274 161.77 46.5597C161.77 46.8453 161.726 47.0868 161.639 47.3098C161.551 47.5328 161.42 47.7208 161.245 47.8737C161.07 48.0267 160.849 48.1465 160.583 48.2295C160.316 48.3142 160.001 48.3548 159.636 48.3548H157.502H157.5ZM158.464 47.5015H159.581C160.032 47.5015 160.351 47.4204 160.534 47.26C160.716 47.0997 160.806 46.8619 160.806 46.5486C160.806 46.2353 160.714 45.9975 160.534 45.8372C160.351 45.6768 160.034 45.5957 159.581 45.5957H158.464V47.5015ZM162.668 48.3548V42.5529H163.632V48.3548H162.668Z" fill="#231F20"/>
<path d="M166.708 48.3548V43.4062H164.727V42.5529H169.653V43.4062H167.672V48.3548H166.708Z" fill="#231F20"/>
<path d="M170.748 48.3548V42.5529H171.712V44.7424H173.102C173.467 44.7424 173.782 44.7848 174.049 44.8677C174.316 44.9525 174.536 45.0705 174.711 45.2234C174.886 45.3764 175.017 45.5662 175.105 45.7929C175.192 46.0196 175.236 46.274 175.236 46.5597C175.236 46.8453 175.192 47.0868 175.105 47.3098C175.017 47.5328 174.886 47.7208 174.711 47.8737C174.536 48.0267 174.314 48.1465 174.049 48.2295C173.782 48.3142 173.467 48.3548 173.102 48.3548H170.748ZM171.712 47.5015H173.048C173.5 47.5015 173.819 47.4204 174.001 47.26C174.183 47.0997 174.274 46.8619 174.274 46.5486C174.274 46.2353 174.182 45.9975 174.001 45.8372C173.819 45.6768 173.502 45.5957 173.048 45.5957H171.712V47.5015Z" fill="#231F20"/>
<path d="M181.476 48.4653C181.104 48.4653 180.757 48.4045 180.436 48.2847C180.116 48.1649 179.838 47.9825 179.605 47.7373C179.371 47.4922 179.187 47.1844 179.052 46.8121C178.918 46.4398 178.85 46.0049 178.85 45.5091V45.2898C178.85 44.8161 178.923 44.4014 179.069 44.0475C179.215 43.6937 179.408 43.3988 179.65 43.161C179.891 42.9233 180.169 42.7445 180.486 42.6247C180.803 42.5049 181.133 42.4441 181.478 42.4441C181.822 42.4441 182.128 42.492 182.403 42.586C182.676 42.68 182.914 42.8127 183.114 42.9804C183.315 43.1481 183.479 43.3453 183.607 43.572C183.734 43.7987 183.828 44.042 183.885 44.3056H182.899C182.84 44.1673 182.773 44.0365 182.696 43.9167C182.619 43.7969 182.525 43.6918 182.412 43.6052C182.3 43.5168 182.167 43.4486 182.018 43.397C181.869 43.3453 181.688 43.3195 181.476 43.3195C181.264 43.3195 181.059 43.3582 180.862 43.4338C180.665 43.5112 180.49 43.6273 180.337 43.784C180.184 43.9406 180.062 44.1434 179.97 44.3922C179.878 44.641 179.834 44.9396 179.834 45.2898V45.5091C179.834 45.8814 179.88 46.2002 179.97 46.4675C180.061 46.7347 180.184 46.9485 180.337 47.1125C180.49 47.2766 180.665 47.3964 180.862 47.4738C181.059 47.5512 181.264 47.588 181.476 47.588C181.834 47.588 182.134 47.4996 182.379 47.3245C182.624 47.1494 182.797 46.908 182.899 46.602H183.885C183.818 46.8858 183.713 47.1439 183.568 47.3743C183.422 47.6046 183.245 47.8 183.037 47.9603C182.829 48.1207 182.593 48.2442 182.331 48.3326C182.068 48.4193 181.784 48.4635 181.478 48.4635L181.476 48.4653Z" fill="#231F20"/>
<path d="M187.608 48.4653C187.235 48.4653 186.881 48.4045 186.546 48.2847C186.211 48.1649 185.914 47.9825 185.66 47.7373C185.403 47.4922 185.199 47.1844 185.046 46.8121C184.893 46.4398 184.815 46.0049 184.815 45.5091V45.2898C184.815 44.8161 184.893 44.4014 185.046 44.0475C185.199 43.6937 185.403 43.3988 185.66 43.161C185.916 42.9233 186.211 42.7445 186.546 42.6247C186.881 42.5049 187.235 42.4441 187.608 42.4441C187.98 42.4441 188.334 42.5049 188.669 42.6247C189.005 42.7445 189.301 42.9233 189.556 43.161C189.812 43.3988 190.015 43.6937 190.17 44.0475C190.322 44.4014 190.4 44.8161 190.4 45.2898V45.5091C190.4 46.0049 190.322 46.4398 190.17 46.8121C190.017 47.1844 189.812 47.4922 189.556 47.7373C189.3 47.9825 189.005 48.1649 188.669 48.2847C188.334 48.4045 187.98 48.4653 187.608 48.4653ZM187.608 47.5899C187.827 47.5899 188.046 47.5512 188.264 47.4756C188.481 47.4001 188.677 47.2784 188.844 47.1144C189.012 46.9504 189.148 46.7366 189.255 46.4748C189.36 46.2113 189.414 45.8906 189.414 45.5109V45.2916C189.414 44.9414 189.36 44.6429 189.255 44.394C189.15 44.1452 189.012 43.9425 188.844 43.7803C188.677 43.62 188.483 43.5038 188.264 43.4301C188.044 43.3564 187.825 43.3214 187.608 43.3214C187.39 43.3214 187.169 43.3582 186.952 43.4301C186.732 43.5038 186.539 43.62 186.371 43.7803C186.203 43.9406 186.067 44.1452 185.96 44.394C185.855 44.6429 185.801 44.9414 185.801 45.2916V45.5109C185.801 45.8906 185.855 46.2113 185.96 46.4748C186.065 46.7384 186.203 46.9504 186.371 47.1144C186.539 47.2784 186.732 47.3982 186.952 47.4756C187.171 47.553 187.39 47.5899 187.608 47.5899Z" fill="#231F20"/>
<path d="M194.176 48.4654C193.797 48.4654 193.439 48.3916 193.104 48.246C192.768 48.1004 192.477 47.8866 192.234 47.6065C191.991 47.3264 191.795 46.9799 191.653 46.5725C191.511 46.1634 191.439 45.7008 191.439 45.1829V44.9636C191.439 44.3074 191.487 43.7214 191.581 43.2071C191.675 42.6929 191.839 42.2543 192.068 41.893C192.298 41.5318 192.601 41.2498 192.977 41.0452C193.353 40.8407 193.824 40.7245 194.394 40.6951C194.628 40.6803 194.844 40.6711 195.041 40.6674C195.238 40.6637 195.424 40.6527 195.599 40.6342C195.774 40.6158 195.935 40.5918 196.08 40.5624C196.226 40.5329 196.359 40.4849 196.475 40.4204V41.3512C196.416 41.3807 196.335 41.4083 196.228 41.4341C196.123 41.4599 195.99 41.482 195.833 41.5005C195.677 41.5189 195.492 41.5355 195.28 41.5502C195.068 41.565 194.827 41.576 194.558 41.5834C194.208 41.5908 193.9 41.635 193.633 41.7143C193.365 41.7954 193.141 41.9225 192.954 42.0976C192.768 42.2727 192.623 42.5013 192.516 42.7814C192.411 43.0615 192.343 43.408 192.313 43.8153C192.402 43.6181 192.514 43.443 192.652 43.2901C192.79 43.1371 192.947 43.0062 193.122 42.8957C193.297 42.7869 193.493 42.7021 193.708 42.6432C193.924 42.5842 194.152 42.5547 194.392 42.5547C194.764 42.5547 195.103 42.6192 195.409 42.7464C195.715 42.8735 195.981 43.0542 196.204 43.2882C196.427 43.5223 196.6 43.808 196.723 44.1471C196.847 44.4862 196.91 44.8677 196.91 45.2916V45.511C196.91 45.957 196.84 46.3606 196.701 46.7255C196.563 47.0904 196.373 47.4019 196.132 47.6618C195.89 47.9217 195.603 48.1207 195.267 48.2589C194.932 48.3972 194.567 48.4672 194.173 48.4672L194.176 48.4654ZM194.176 47.5899C194.433 47.5899 194.667 47.5438 194.882 47.4535C195.098 47.3632 195.282 47.2287 195.435 47.0536C195.588 46.8785 195.708 46.661 195.796 46.403C195.883 46.1431 195.927 45.8464 195.927 45.511V45.2916C195.927 45.0078 195.883 44.7516 195.796 44.5249C195.708 44.2982 195.588 44.1029 195.435 43.9388C195.282 43.7748 195.098 43.6495 194.882 43.561C194.667 43.4744 194.431 43.4301 194.176 43.4301C193.922 43.4301 193.686 43.4744 193.47 43.561C193.255 43.6495 193.071 43.7748 192.918 43.9388C192.765 44.1029 192.645 44.2982 192.556 44.5249C192.468 44.7516 192.425 45.006 192.425 45.2916V45.511C192.425 45.8316 192.472 46.1228 192.562 46.3809C192.652 46.6407 192.779 46.8582 192.94 47.037C193.1 47.2158 193.286 47.3522 193.498 47.448C193.71 47.542 193.937 47.5899 194.176 47.5899Z" fill="#231F20"/>
<path d="M200.69 48.4653C200.317 48.4653 199.964 48.4045 199.628 48.2847C199.293 48.1649 198.996 47.9825 198.742 47.7373C198.485 47.4922 198.281 47.1844 198.128 46.8121C197.975 46.4398 197.897 46.0049 197.897 45.5091V45.2898C197.897 44.8161 197.975 44.4014 198.128 44.0475C198.281 43.6937 198.485 43.3988 198.742 43.161C198.998 42.9233 199.293 42.7445 199.628 42.6247C199.964 42.5049 200.317 42.4441 200.69 42.4441C201.062 42.4441 201.416 42.5049 201.751 42.6247C202.087 42.7445 202.383 42.9233 202.638 43.161C202.894 43.3988 203.097 43.6937 203.252 44.0475C203.404 44.4014 203.482 44.8161 203.482 45.2898V45.5091C203.482 46.0049 203.404 46.4398 203.252 46.8121C203.099 47.1844 202.894 47.4922 202.638 47.7373C202.382 47.9825 202.087 48.1649 201.751 48.2847C201.416 48.4045 201.062 48.4653 200.69 48.4653ZM200.69 47.5899C200.909 47.5899 201.128 47.5512 201.346 47.4756C201.563 47.4001 201.759 47.2784 201.926 47.1144C202.094 46.9504 202.23 46.7366 202.337 46.4748C202.442 46.2113 202.496 45.8906 202.496 45.5109V45.2916C202.496 44.9414 202.442 44.6429 202.337 44.394C202.232 44.1452 202.094 43.9425 201.926 43.7803C201.759 43.62 201.565 43.5038 201.346 43.4301C201.126 43.3564 200.907 43.3214 200.69 43.3214C200.472 43.3214 200.251 43.3582 200.034 43.4301C199.814 43.5038 199.621 43.62 199.453 43.7803C199.285 43.9406 199.149 44.1452 199.042 44.394C198.937 44.6429 198.883 44.9414 198.883 45.2916V45.5109C198.883 45.8906 198.937 46.2113 199.042 46.4748C199.147 46.7384 199.285 46.9504 199.453 47.1144C199.621 47.2784 199.814 47.3982 200.034 47.4756C200.253 47.553 200.472 47.5899 200.69 47.5899Z" fill="#231F20"/>
<path d="M204.85 48.3548V42.5528H205.814V46.9319L208.814 42.5528H209.778V48.3548H208.814V43.9757L205.814 48.3548H204.85ZM207.314 41.8414C207.03 41.8414 206.783 41.8101 206.575 41.7474C206.366 41.6848 206.197 41.5945 206.066 41.4747C205.935 41.3549 205.836 41.2056 205.771 41.025C205.705 40.8462 205.673 40.6434 205.673 40.4167H206.615C206.615 40.6656 206.674 40.8517 206.79 40.9752C206.906 41.0987 207.082 41.1613 207.316 41.1613C207.55 41.1613 207.738 41.0987 207.857 40.9752C207.977 40.8517 208.038 40.6656 208.038 40.4167H208.958C208.958 40.6434 208.925 40.8462 208.858 41.025C208.792 41.2037 208.694 41.353 208.563 41.4747C208.433 41.5945 208.263 41.6866 208.055 41.7474C207.846 41.8101 207.601 41.8414 207.316 41.8414H207.314Z" fill="#231F20"/>
</svg>
