<svg width="740" height="594" viewBox="0 0 740 594" fill="none" xmlns="http://www.w3.org/2000/svg">
<path d="M361.977 528.291C354.487 527.36 347.429 523.896 342.12 518.558C325.846 502.175 273.091 445.034 277.355 397.551C278.873 380.698 287.277 366.805 302.359 356.276C308.741 351.815 316.802 350.046 325.682 351.149C336.081 352.441 346.74 357.633 354.195 365.054C360.617 371.432 365.463 379.13 369.72 389.787C379.622 375.4 400.673 362.267 418.588 364.492C422.449 364.972 426.107 366.132 429.453 367.92C442.831 375.109 450.624 387.904 451.989 404.906C454.905 441.402 427.454 490.488 386.72 521.628C379.645 527.035 370.854 529.419 361.987 528.318L361.977 528.291Z" fill="white" fill-opacity="0.15"/>
<path d="M679.644 561.122C658.536 731.062 392.969 723.423 405.272 578.527C410.558 516.275 576.877 411.427 508.514 332.813C457.897 274.613 402.047 353.419 376.659 350.266C355.222 347.603 351.512 265.648 290.405 275.064C192.814 290.077 253.76 437.193 249.156 492.264C245.319 538.195 231.769 603.553 129.52 581.941C-107.985 529.451 105.829 314.476 134.455 248.569C178.858 145.856 178.087 25.6292 268.011 24.2738C342.713 23.152 359.262 156.025 406.007 160.794C458.48 166.146 496.662 46.0689 583.918 67.9811C613.879 75.5105 637.321 100.687 654.147 143.861C671.853 189.904 656.285 303.698 650.787 371.998C644.178 451.26 685.156 516.746 679.644 561.122Z" fill="white" fill-opacity="0.15"/>
</svg>
