<svg width="133" height="139" viewBox="0 0 133 139" fill="none" xmlns="http://www.w3.org/2000/svg">
<path d="M126.053 34.7893C129.963 31.2608 132.323 26.1112 132.49 20.6993C132.657 15.2874 130.654 10.0185 126.983 6.25166C123.263 2.4371 118.257 0.31526 112.917 0.267578C112.869 0.267578 112.821 0.267578 112.797 0.267578C107.505 0.267578 102.546 2.3179 98.8027 6.06093C95.0835 9.78012 93.0331 14.739 93.0093 20.0079C93.0093 23.5363 91.7457 26.7787 89.5047 29.2343C68.9061 11.7589 47.5684 5.751 38.2943 15.049C38.2943 15.049 38.2705 15.0966 38.2466 15.1205L32.2864 21.0807C27.256 26.1112 26.7553 34.5985 29.95 44.4925C23.2507 46.4237 17.2189 50.0236 12.3554 55.0064C-4.76244 72.5533 -3.09358 102.855 16.0984 122.548C26.0162 132.728 39.2956 138.545 52.5274 138.545C63.9472 138.545 74.4849 134.206 82.1378 126.362C87.9789 120.354 91.7934 112.725 93.2477 104.19C95.4649 104.643 97.6106 104.906 99.6132 104.906C104.548 104.906 108.72 103.499 111.677 100.543L117.709 94.5108C117.709 94.5108 117.709 94.487 117.732 94.4632C126.959 85.1652 120.999 63.9468 103.642 43.4197C106.074 41.2263 109.412 39.9389 113.131 39.8912C117.923 39.8197 122.524 38.0078 126.077 34.8131L126.053 34.7893ZM53.1472 79.6103C62.1353 88.5983 71.6716 95.4407 80.5405 99.732C79.8014 106.479 77.1312 112.415 72.7207 116.921C67.5472 122.214 60.371 125.123 52.5274 125.123C42.7526 125.099 32.8824 120.712 25.4679 113.059C18.4825 105.907 14.3342 96.7519 13.762 87.287C13.2375 78.3228 16.0507 70.2169 21.7249 64.4236C25.4202 60.609 30.1646 58.0342 35.5526 56.8898C39.8201 64.3759 45.7327 72.1719 53.1711 79.5864L53.1472 79.6103ZM78.7286 123.025C71.9577 129.962 62.6598 133.777 52.5274 133.777C40.583 133.777 28.5434 128.46 19.5076 119.21C2.10375 101.353 0.434887 74.0315 15.7646 58.3203C20.1275 53.8382 25.5871 50.6435 31.6189 48.9746C32.1195 50.1667 32.6679 51.3587 33.2639 52.5508C27.4944 54.0289 22.3924 56.9375 18.3394 61.1097C11.7355 67.8567 8.42161 77.25 9.04147 87.5731C9.66133 98.1824 14.3103 108.41 22.0825 116.397C30.403 124.932 41.5128 129.867 52.5512 129.891C61.7061 129.891 70.0982 126.458 76.1776 120.259C81.0411 115.3 84.0928 108.958 85.1656 101.735C86.3577 102.188 87.5259 102.617 88.6702 102.974C87.4067 110.723 84.0213 117.637 78.7763 123.025H78.7286ZM56.5326 76.2487C38.5089 58.2249 28.9963 36.8396 33.9553 26.9218C33.9314 31.0224 34.8135 35.6714 36.7685 40.821C40.8215 51.5495 48.7843 63.1838 59.179 73.5785C75.2001 89.5996 92.9855 98.8261 105.645 98.8261H105.812C95.8941 103.737 74.5326 94.2486 56.5326 76.2248V76.2487ZM114.347 91.1016C105.979 99.4698 82.257 89.9095 62.5406 70.2169C52.6227 60.2991 45.0413 49.2607 41.2268 39.1522C37.6983 29.8304 37.8413 22.3205 41.632 18.4821L41.6797 18.4344C48.8559 11.3059 67.9048 17.4331 85.8332 32.3813C83.1868 33.8595 79.9445 34.3601 76.5352 33.7164C72.816 33.025 70.6703 34.2171 69.5498 35.3615C65.4968 39.4144 68.4531 48.4978 76.4398 56.4845C82.0186 62.0633 88.1219 65.1865 92.6755 65.1865C94.6543 65.1865 96.347 64.5905 97.5629 63.3746C98.6834 62.254 99.8993 60.1084 99.208 56.3892C98.5642 53.0038 99.0649 49.7614 100.519 47.115C115.396 64.9958 121.499 83.997 114.347 91.1493V91.1016ZM99.7801 40.4157L99.0649 41.131C94.9881 45.1839 93.3431 51.0726 94.4874 57.2474C94.7259 58.5349 94.6067 59.5362 94.1775 59.9892C92.6755 61.4911 86.1669 59.4885 79.7776 53.0991C73.3882 46.7097 71.4094 40.2012 72.8875 38.723C73.1736 38.4369 73.722 38.2701 74.4134 38.2701C74.771 38.2701 75.1763 38.3177 75.6292 38.3893C81.8041 39.5575 87.6689 37.8886 91.7457 33.8118L92.461 33.0966C95.8702 29.6873 97.7537 25.0383 97.7537 20.0079C97.7537 16.0264 99.3272 12.2596 102.14 9.44634C104.977 6.60927 108.768 5.03577 112.773 5.03577H112.869C116.922 5.05961 120.712 6.68079 123.55 9.56555C126.339 12.4026 127.841 16.4079 127.722 20.5324C127.579 24.6569 125.814 28.5668 122.858 31.237C120.164 33.6687 116.683 35.0277 113.036 35.0754C107.838 35.1469 103.118 37.0303 99.7563 40.3919L99.7801 40.4157Z" fill="#D071FF"/>
</svg>
