<svg width="168" height="168" viewBox="0 0 168 168" fill="none" xmlns="http://www.w3.org/2000/svg">
<path d="M95.456 47.2L95.9076 46.9853L95.6929 46.5337C90.2564 35.1 75.0156 31.146 61.7287 37.4636C48.4418 43.7813 41.8883 58.0979 47.3248 69.5317L47.5395 69.9832L47.9911 69.7685L95.456 47.2Z" fill="#DDFFBE" stroke="#B1E384"/>
<path d="M151.697 118.102L151.699 118.103L66.3971 158.662C65.1447 159.258 63.805 159.444 62.5271 159.273L62.5269 159.273C60.3975 158.988 58.4408 157.708 57.3575 155.665L57.3539 155.658L57.3351 155.624L57.3314 155.617L56.6278 154.289L155.557 107.25L156.165 108.684C157.607 112.091 156.12 115.999 152.783 117.586L151.697 118.102ZM10.3753 67.1978L10.3751 67.1975L7.66053 62.0949L7.66018 62.0942C6.7673 60.4218 6.60137 58.5095 7.19534 56.7064C7.79069 54.8993 9.06112 53.4572 10.7784 52.6407L105.66 7.52656C107.377 6.71002 109.298 6.63492 111.075 7.31379C112.849 7.99135 114.228 9.32544 114.96 11.0749L114.965 11.0858L114.967 11.0902L154.104 103.799L54.8708 150.983L10.3753 67.1978ZM112.41 3.81816C109.672 2.77026 106.701 2.88862 104.053 4.14745L9.17298 49.261C6.52549 50.5198 4.55836 52.7494 3.6425 55.5349C2.72564 58.3174 2.97987 61.2732 4.35843 63.8547C4.35852 63.8549 4.35861 63.8551 4.3587 63.8553L54.054 157.419C56.7257 162.459 62.8545 164.49 68.0051 162.041L154.392 120.966C155.678 120.354 156.787 119.518 157.692 118.525C160.405 115.548 161.279 111.167 159.613 107.228L118.412 9.62376C118.412 9.62347 118.412 9.62318 118.412 9.62288C117.28 6.92532 115.145 4.8626 112.41 3.81816Z" fill="#B1E384" stroke="#B1E384"/>
<path d="M48.754 66.7788L65.5141 58.8097C65.2677 56.8963 65.9513 54.9732 67.3508 53.6455L64.4327 47.5083C63.9886 46.5743 64.3849 45.4595 65.3189 45.0154C66.2529 44.5713 67.3677 44.9676 67.8118 45.9016L70.7299 52.0388C72.643 51.7913 74.5671 52.4744 75.8949 53.8739L92.6574 45.9037C91.1915 43.5302 89.1816 41.5937 86.8084 40.1198L85.9179 42.1707C85.9178 42.1708 85.9178 42.1708 85.9178 42.1709C85.7307 42.6021 85.398 42.9279 85.0053 43.1146C84.5362 43.3376 83.9728 43.3653 83.4561 43.1409L83.4555 43.1406C82.5098 42.7286 82.0748 41.6268 82.4861 40.6793L82.9447 40.8783L82.4861 40.6792L83.4585 38.4391C81.1475 37.5349 78.6171 37.0103 75.9772 36.8841L76.0451 38.7959C76.0451 38.7959 76.0451 38.796 76.0451 38.796C76.0726 39.5654 75.6297 40.2426 74.9774 40.5528C74.7555 40.6583 74.5064 40.7227 74.2427 40.7325L74.2422 40.7325C73.2091 40.7698 72.3427 39.9615 72.3054 38.9296L72.3054 38.9293L72.2358 36.9797C69.6613 37.2246 67.0445 37.848 64.4727 38.8757L65.0912 40.1765C65.5353 41.1105 65.139 42.2253 64.205 42.6694C63.271 43.1135 62.1562 42.7172 61.7121 41.7832L61.0936 40.4824C58.6731 41.8284 56.5378 43.4645 54.7228 45.3068L56.1911 46.5914L56.1916 46.5918C56.966 47.2713 57.0474 48.4521 56.3676 49.231L48.754 66.7788ZM48.754 66.7788C47.8385 64.1445 47.6041 61.3628 47.9597 58.5914L50.1127 59.1953C50.1128 59.1953 50.1128 59.1953 50.1129 59.1953C50.5654 59.3224 51.028 59.27 51.4208 59.0833C51.8899 58.8602 52.2669 58.4407 52.4191 57.8983L52.4192 57.8977C52.6966 56.9041 52.1166 55.8713 51.1221 55.5921L51.1221 55.5921L48.7707 54.9323C49.5271 52.5696 50.7175 50.2759 52.2869 48.1482L53.727 49.4077C54.3064 49.9147 55.1113 49.9987 55.7636 49.6885C55.9863 49.5826 56.194 49.43 56.3676 49.2311L48.754 66.7788ZM96.9279 45.9462C92.9486 37.577 83.9888 32.9651 74.246 33.1183L74.2381 33.1164L74.2074 33.1091C74.1628 33.0987 74.075 33.0793 73.969 33.0835C73.8613 33.0871 73.7727 33.1113 73.7182 33.1276C73.6901 33.1361 73.6733 33.1414 73.6622 33.1451C69.5188 33.2915 65.2431 34.2744 61.1396 36.2256C57.0349 38.1773 53.5709 40.8735 50.8432 43.9968L50.8293 44.0059C50.8207 44.0117 50.8096 44.019 50.7981 44.0268C50.7535 44.057 50.6779 44.1101 50.6065 44.1905L50.6065 44.1905L50.602 44.1957C50.5346 44.2737 50.495 44.3516 50.4748 44.3926L50.4613 44.4205L50.4592 44.4247C44.1866 51.8854 42.1059 61.7488 46.0863 70.1203C46.5304 71.0543 47.6452 71.4506 48.5792 71.0065L67.1198 62.1908C68.8744 64.0427 71.6803 64.6672 74.1117 63.5111C76.5432 62.355 77.8299 59.7845 77.5011 57.2548L96.0417 48.4391C96.9757 47.995 97.372 46.8802 96.9279 45.9462ZM72.5057 60.1301C71.3499 60.6797 69.9604 60.1857 69.4109 59.03C68.8941 57.9432 69.3081 56.6528 70.3292 56.0463C70.3684 56.039 70.4474 56.0231 70.5334 55.9822C70.6187 55.9417 70.681 55.8903 70.711 55.8646C71.8251 55.4539 73.0887 55.9478 73.6058 57.0353C74.1554 58.1911 73.6614 59.5806 72.5057 60.1301Z" fill="#B1E384" stroke="#B1E384"/>
<path d="M10.3963 61.4767C11.6427 64.0981 14.7906 65.2172 17.412 63.9708C20.0334 62.7243 21.1524 59.5765 19.906 56.9551C18.6596 54.3337 15.5117 53.2146 12.8903 54.4611C10.2689 55.7075 9.14991 58.8553 10.3963 61.4767ZM13.776 59.8713C13.4155 59.1131 13.7403 58.2015 14.4976 57.8414C15.256 57.4808 16.1669 57.8047 16.5275 58.563C16.8881 59.3214 16.5642 60.2323 15.8059 60.5929C15.0475 60.9535 14.1366 60.6296 13.776 59.8713Z" fill="#B1E384" stroke="#B1E384"/>
<path d="M53.8787 141.831C55.1252 144.452 58.273 145.571 60.8944 144.325C63.5158 143.078 64.6349 139.93 63.3884 137.309C62.142 134.688 58.9942 133.569 56.3728 134.815C53.7514 136.061 52.6323 139.209 53.8787 141.831ZM57.2584 140.225C56.898 139.467 57.2227 138.556 57.98 138.195C58.7384 137.835 59.6493 138.159 60.0099 138.917C60.3705 139.675 60.0467 140.586 59.2883 140.947C58.53 141.307 57.619 140.984 57.2584 140.225Z" fill="#B1E384" stroke="#B1E384"/>
<path d="M138.818 103.24C140.065 105.861 143.212 106.98 145.834 105.734C148.455 104.487 149.574 101.339 148.328 98.718C147.081 96.0966 143.934 94.9776 141.312 96.224C138.691 97.4704 137.572 100.618 138.818 103.24ZM142.198 101.634C141.837 100.876 142.162 99.9644 142.92 99.6044C143.678 99.2438 144.589 99.5676 144.949 100.326C145.31 101.084 144.986 101.995 144.228 102.356C143.469 102.716 142.558 102.393 142.198 101.634Z" fill="#B1E384" stroke="#B1E384"/>
<path d="M103.246 17.3281C104.492 19.9495 107.64 21.0685 110.262 19.8221C112.883 18.5757 114.002 15.4278 112.756 12.8064C111.509 10.185 108.361 9.06597 105.74 10.3124C103.119 11.5588 102 14.7067 103.246 17.3281ZM106.626 15.7226C106.265 14.9645 106.59 14.0528 107.347 13.6927C108.106 13.3322 109.017 13.656 109.377 14.4143C109.738 15.1727 109.414 16.0836 108.655 16.4442C107.897 16.8048 106.986 16.4809 106.626 15.7226Z" fill="#B1E384" stroke="#B1E384"/>
</svg>
