<svg width="167" height="178" viewBox="0 0 167 178" fill="none" xmlns="http://www.w3.org/2000/svg">
<path fill-rule="evenodd" clip-rule="evenodd" d="M33.6429 157.629C44.4187 152.682 60.6146 141.825 50.6486 128.405C48.799 125.915 46.25 123.282 44.2232 120.799C36.0401 110.783 31.646 100.521 42.0652 90.1028C44.5913 87.5784 45.0307 87.4815 48.7277 86.2308C46.5513 88.4991 47.6464 87.5115 45.332 89.3275C36.4841 99.785 37.8552 106.631 46.8803 116.717C51.3848 121.75 57.3363 126.305 59.0686 133.089C62.7495 147.499 47.8879 158.571 36.728 164.231L33.6406 157.627L33.6429 157.629Z" fill="#FF56AD"/>
<path fill-rule="evenodd" clip-rule="evenodd" d="M23.8959 154.972C33.6185 151.536 43.1756 153.343 45.2432 159.009C47.3108 164.675 41.1057 172.054 31.3854 175.49C21.6628 178.926 12.1056 177.118 10.038 171.453C7.97041 165.787 14.1756 158.408 23.8959 154.972Z" fill="#FF56AD"/>
<path fill-rule="evenodd" clip-rule="evenodd" d="M103.129 53.655C94.7577 55.5261 81.6627 60.7328 86.7241 71.6174C87.6637 73.6372 89.0782 75.8604 90.1444 77.9001C94.4511 86.135 96.0339 93.9781 87.0989 99.7353C84.9331 101.13 84.6066 101.134 81.8026 101.461C83.6836 100.195 82.7606 100.724 84.6699 99.7931C92.4985 93.7765 92.5469 88.7731 87.6537 80.3647C85.213 76.1695 81.6727 72.0934 81.4561 67.0834C80.9946 56.4369 93.175 50.8798 101.928 48.569L103.131 53.6567L103.129 53.655Z" fill="#FF56AD"/>
<path fill-rule="evenodd" clip-rule="evenodd" d="M108.974 57.189C101.66 58.189 95.2476 55.5145 94.6511 51.2169C94.0547 46.9193 99.4993 42.625 106.813 41.625C114.127 40.625 120.54 43.2994 121.136 47.597C121.732 51.8946 116.288 56.1889 108.974 57.189Z" fill="#FF56AD"/>
<path fill-rule="evenodd" clip-rule="evenodd" d="M23.27 62.4783C13.767 58.1609 -0.517594 48.6912 8.27072 36.9819C9.90176 34.81 12.1492 32.5124 13.9386 30.3471C21.1558 21.6081 25.031 12.6575 15.8412 3.56802C13.6137 1.36633 13.2272 1.28203 9.96674 0.192749C11.886 2.1713 10.9197 1.31013 12.9606 2.89528C20.7643 12.0178 19.5564 17.9898 11.5945 26.79C7.62263 31.1801 2.37297 35.1554 0.843553 41.0713C-2.40354 53.6434 10.7031 63.3015 20.5477 68.2387L23.27 62.4766V62.4783Z" fill="#FF56AD"/>
<path fill-rule="evenodd" clip-rule="evenodd" d="M31.1282 59.723C22.6665 56.708 14.3463 58.2948 12.547 63.2668C10.7477 68.2388 16.1473 74.715 24.6107 77.7299C33.0725 80.7449 41.3927 79.1581 43.192 74.1861C44.9913 69.2141 39.5917 62.7379 31.1282 59.723Z" fill="#FF56AD"/>
<path fill-rule="evenodd" clip-rule="evenodd" d="M119.587 131.911C127.893 135.204 142.243 138.392 144.365 126.076C144.759 123.792 144.867 121.053 145.162 118.676C146.358 109.079 149.66 101.413 160.761 101.694C163.452 101.762 163.733 101.95 166.339 103.312C163.97 103.299 165.078 103.386 162.883 103.067C152.579 103.658 149.562 107.927 148.767 118.017C148.371 123.051 148.989 128.625 146.196 133.058C140.264 142.478 126.491 140.124 117.596 136.987L119.587 131.911Z" fill="#FF56AD"/>
<path fill-rule="evenodd" clip-rule="evenodd" d="M116.666 125.453C123.545 128.875 127.467 134.926 125.424 138.967C123.382 143.011 116.15 143.513 109.269 140.091C102.39 136.67 98.468 130.619 100.511 126.577C102.553 122.534 109.785 122.032 116.666 125.453Z" fill="#FF56AD"/>
</svg>
