<svg width="7" height="6" viewBox="0 0 7 6" fill="none" xmlns="http://www.w3.org/2000/svg">
<path d="M4.1193 5.99909C3.86156 5.99909 3.60781 5.90917 3.40542 5.74659C2.78498 5.2475 0.756711 3.48956 0.701354 1.82107C0.681869 1.22888 0.908167 0.709809 1.37493 0.278837C1.57245 0.0962761 1.83816 0 2.14373 0C2.50156 0 2.88462 0.134423 3.16849 0.360127C3.41295 0.554042 3.60958 0.800636 3.79868 1.15259C4.07369 0.6099 4.73177 0.0626705 5.34822 0.0626705C5.48108 0.0626705 5.60995 0.0871935 5.73085 0.134877C6.21445 0.326976 6.53241 0.737966 6.65021 1.32289C6.90264 2.57857 6.17902 4.40282 4.92972 5.66076C4.71273 5.8792 4.42487 6 4.11975 6L4.1193 5.99909Z" fill="#B1E384"/>
</svg>
