<svg width="24" height="13" viewBox="0 0 24 13" fill="none" xmlns="http://www.w3.org/2000/svg">
<mask id="path-1-inside-1_58_1465" fill="white">
<path fill-rule="evenodd" clip-rule="evenodd" d="M0.803711 6.6892C3.09921 3.06912 7.38968 0.633545 12.3037 0.633545C17.2177 0.633545 21.5082 3.06913 23.8037 6.6892C21.5082 10.3093 17.2177 12.7449 12.3037 12.7449C7.38968 12.7449 3.09921 10.3093 0.803711 6.6892Z"/>
</mask>
<path d="M0.803711 6.6892L0.296996 6.36789L0.0932527 6.6892L0.296996 7.01051L0.803711 6.6892ZM23.8037 6.6892L24.3104 7.01051L24.5142 6.6892L24.3104 6.36789L23.8037 6.6892ZM1.31043 7.01051C3.4913 3.57119 7.58646 1.23354 12.3037 1.23354V0.0335449C7.1929 0.0335449 2.70712 2.56705 0.296996 6.36789L1.31043 7.01051ZM12.3037 1.23354C17.021 1.23354 21.1161 3.5712 23.297 7.01051L24.3104 6.36789C21.9003 2.56705 17.4145 0.0335449 12.3037 0.0335449V1.23354ZM23.297 6.36789C21.1161 9.80721 17.021 12.1449 12.3037 12.1449V13.3449C17.4145 13.3449 21.9003 10.8114 24.3104 7.01051L23.297 6.36789ZM12.3037 12.1449C7.58646 12.1449 3.4913 9.80721 1.31043 6.36789L0.296996 7.01051C2.70712 10.8114 7.1929 13.3449 12.3037 13.3449V12.1449Z" fill="#C1C1C1" mask="url(#path-1-inside-1_58_1465)"/>
<circle cx="12.1397" cy="6.40409" r="4.35922" stroke="#C1C1C1" stroke-width="0.6"/>
</svg>
