<svg width="61" height="60" viewBox="0 0 61 60" fill="none" xmlns="http://www.w3.org/2000/svg">
<circle cx="30.2106" cy="30.014" r="29.986" fill="#FF56AD"/>
<g clip-path="url(#clip0_58_939)">
<path d="M32.6356 32.4391C30.6596 34.4781 30.5159 37.02 30.3452 42.5888C35.5368 42.5888 39.1206 42.5708 40.9709 40.7744C42.7673 38.9241 42.7853 35.1697 42.7853 30.1487C37.2165 30.3284 34.6746 30.4631 32.6356 32.4391ZM17.6357 30.1487C17.6357 35.1697 17.6537 38.9241 19.4501 40.7744C21.3004 42.5708 24.8842 42.5888 30.0758 42.5888C29.8961 37.02 29.7614 34.4781 27.7854 32.4391C25.7465 30.4631 23.2046 30.3194 17.6357 30.1487ZM30.0758 17.4392C24.8932 17.4392 21.3004 17.4572 19.4501 19.2536C17.6537 21.1039 17.6357 24.8584 17.6357 29.8793C23.2046 29.6996 25.7465 29.5649 27.7854 27.5889C29.7614 25.55 29.9051 23.0081 30.0758 17.4392ZM32.6356 27.5889C30.6596 25.55 30.5159 23.0081 30.3452 17.4392C35.5368 17.4392 39.1206 17.4572 40.9709 19.2536C42.7673 21.1039 42.7853 24.8584 42.7853 29.8793C37.2165 29.6996 34.6746 29.5649 32.6356 27.5889Z" fill="white"/>
<path d="M42.7853 30.1487V29.8793C37.2165 29.6996 34.6746 29.5649 32.6356 27.5889C30.6596 25.55 30.5159 23.0081 30.3452 17.4392H30.0758C29.8961 23.0081 29.7614 25.55 27.7854 27.5889C25.7465 29.5649 23.2046 29.7086 17.6357 29.8793V30.1487C23.2046 30.3284 25.7465 30.4631 27.7854 32.4391C29.7614 34.4781 29.9051 37.02 30.0758 42.5888H30.3452C30.5249 37.02 30.6596 34.4781 32.6356 32.4391C34.6746 30.4631 37.2165 30.3194 42.7853 30.1487Z" fill="#FF56AD"/>
</g>
<defs>
<clipPath id="clip0_58_939">
<rect width="25.1495" height="25.1495" fill="white" transform="translate(17.6357 17.4392)"/>
</clipPath>
</defs>
</svg>
