<svg width="61" height="60" viewBox="0 0 61 60" fill="none" xmlns="http://www.w3.org/2000/svg">
<circle cx="30.5924" cy="30.014" r="29.986" fill="#FF56AD"/>
<g clip-path="url(#clip0_58_935)">
<path d="M42.3929 19.4573L17.6272 28.4595C16.8262 28.7518 16.871 29.8237 17.7018 30.0511L23.9952 31.7866L26.3435 38.7377C26.5872 39.4616 27.5773 39.6844 28.1444 39.1414L31.3981 36.0417L37.7811 40.4129C38.5622 40.9465 39.6766 40.5521 39.8756 39.6658L44.1044 20.8077C44.3133 19.8842 43.3382 19.1139 42.3929 19.4573ZM39.2885 23.6429L27.7862 33.1323C27.6718 33.2251 27.5972 33.3596 27.5822 33.4988L27.1395 37.1693C27.1245 37.29 26.9454 37.3039 26.9056 37.1879L25.0798 31.7123C24.9952 31.4618 25.1047 31.188 25.3435 31.0534L38.9303 23.1928C39.2437 23.0118 39.5621 23.4109 39.2885 23.6382V23.6429Z" fill="white"/>
</g>
<defs>
<clipPath id="clip0_58_935">
<rect width="27.0841" height="21.2804" fill="white" transform="translate(17.0508 19.3738)"/>
</clipPath>
</defs>
</svg>
